<mxfile host="65bd71144e">
    <diagram id="Kz0ywYGAHpizFOXHB_ZU" name="Page-1">
        <mxGraphModel dx="716" dy="572" grid="1" gridSize="10" guides="1" tooltips="1" connect="1" arrows="1" fold="1" page="1" pageScale="1" pageWidth="827" pageHeight="1169" math="0" shadow="0">
            <root>
                <mxCell id="0"/>
                <mxCell id="1" parent="0"/>
                <mxCell id="3" value="" style="rounded=0;whiteSpace=wrap;html=1;fillColor=#FFFFFF;strokeColor=none;connectable=0;container=1;collapsible=0;recursiveResize=0;movable=0;rotatable=0;cloneable=0;deletable=0;" parent="1" vertex="1">
                    <mxGeometry x="290" y="100" width="1230" height="1710" as="geometry"/>
                </mxCell>
                <mxCell id="6" value="&lt;div style=&quot;font-size: 14px&quot;&gt;&lt;div style=&quot;font-size: 14px&quot;&gt;&lt;div style=&quot;font-size: 14px&quot;&gt;&lt;div style=&quot;font-size: 14px&quot;&gt;&lt;div&gt;周公&lt;/div&gt;&lt;/div&gt;&lt;/div&gt;&lt;/div&gt;&lt;/div&gt;" style="text;html=1;align=center;verticalAlign=middle;resizable=0;points=[];autosize=1;strokeColor=none;fillColor=none;fontSize=14;fontColor=#000000;" parent="3" vertex="1">
                    <mxGeometry x="283" y="52" width="40" height="20" as="geometry"/>
                </mxCell>
                <mxCell id="62" style="edgeStyle=orthogonalEdgeStyle;shape=connector;rounded=1;html=1;exitX=0.5;exitY=1;exitDx=0;exitDy=0;entryX=0.5;entryY=0;entryDx=0;entryDy=0;labelBackgroundColor=default;fontFamily=Helvetica;fontSize=16;fontColor=#000000;endArrow=blockThin;endFill=1;strokeColor=#000000;strokeWidth=1;" edge="1" parent="3" source="7" target="60">
                    <mxGeometry relative="1" as="geometry"/>
                </mxCell>
                <mxCell id="7" value="&lt;div style=&quot;font-size: 16px&quot;&gt;&lt;div style=&quot;font-size: 16px&quot;&gt;&lt;div style=&quot;font-size: 16px&quot;&gt;&lt;div style=&quot;font-size: 16px&quot;&gt;&lt;div style=&quot;font-size: 16px&quot;&gt;姬旦&lt;br&gt;&lt;/div&gt;&lt;/div&gt;&lt;/div&gt;&lt;/div&gt;&lt;div style=&quot;font-size: 16px&quot;&gt;&lt;/div&gt;&lt;/div&gt;" style="rounded=1;whiteSpace=wrap;html=1;fillColor=#E6E6E6;fontColor=#000000;fontSize=16;strokeColor=none;strokeWidth=2;" parent="3" vertex="1">
                    <mxGeometry x="235" y="47" width="50" height="30" as="geometry"/>
                </mxCell>
                <mxCell id="9" value="&lt;div style=&quot;font-size: 14px&quot;&gt;&lt;div style=&quot;font-size: 14px&quot;&gt;&lt;div style=&quot;font-size: 14px&quot;&gt;&lt;div style=&quot;font-size: 14px&quot;&gt;&lt;div style=&quot;font-size: 14px&quot;&gt;&lt;div style=&quot;font-size: 14px&quot;&gt;&lt;div&gt;声子&lt;/div&gt;&lt;/div&gt;&lt;/div&gt;&lt;/div&gt;&lt;/div&gt;&lt;/div&gt;&lt;/div&gt;" style="text;html=1;align=center;verticalAlign=middle;resizable=0;points=[];autosize=1;strokeColor=none;fillColor=none;fontSize=14;fontColor=#000000;" parent="3" vertex="1">
                    <mxGeometry x="567" y="518" width="40" height="20" as="geometry"/>
                </mxCell>
                <mxCell id="43" value="&lt;font color=&quot;#ffff00&quot;&gt;1&lt;/font&gt;" style="ellipse;whiteSpace=wrap;html=1;aspect=fixed;fontFamily=Helvetica;fontSize=10;fontColor=#ffffff;fillColor=#a20025;strokeColor=#6F0000;" parent="3" vertex="1">
                    <mxGeometry x="213.5" y="52" width="19.5" height="19.5" as="geometry"/>
                </mxCell>
                <mxCell id="59" value="&lt;font color=&quot;#ffff00&quot;&gt;2&lt;/font&gt;" style="ellipse;whiteSpace=wrap;html=1;aspect=fixed;fontFamily=Helvetica;fontSize=10;fontColor=#ffffff;fillColor=#a20025;strokeColor=#6F0000;" vertex="1" parent="3">
                    <mxGeometry x="208.5" y="115" width="19.5" height="19.5" as="geometry"/>
                </mxCell>
                <mxCell id="67" style="edgeStyle=orthogonalEdgeStyle;shape=connector;rounded=1;html=1;exitX=0.5;exitY=1;exitDx=0;exitDy=0;entryX=0.5;entryY=0;entryDx=0;entryDy=0;labelBackgroundColor=default;fontFamily=Helvetica;fontSize=16;fontColor=#000000;endArrow=blockThin;endFill=1;strokeColor=#000000;strokeWidth=1;" edge="1" parent="3" source="60" target="64">
                    <mxGeometry relative="1" as="geometry"/>
                </mxCell>
                <mxCell id="71" style="edgeStyle=orthogonalEdgeStyle;shape=connector;rounded=1;html=1;exitX=0.5;exitY=1;exitDx=0;exitDy=0;entryX=0.5;entryY=0;entryDx=0;entryDy=0;labelBackgroundColor=default;fontFamily=Helvetica;fontSize=16;fontColor=#000000;endArrow=blockThin;endFill=1;strokeColor=#000000;strokeWidth=1;" edge="1" parent="3" source="60" target="69">
                    <mxGeometry relative="1" as="geometry"/>
                </mxCell>
                <mxCell id="60" value="&lt;div style=&quot;font-size: 16px&quot;&gt;&lt;div style=&quot;font-size: 16px&quot;&gt;&lt;div style=&quot;font-size: 16px&quot;&gt;&lt;div style=&quot;font-size: 16px&quot;&gt;&lt;div style=&quot;font-size: 16px&quot;&gt;姬伯禽&lt;br&gt;&lt;/div&gt;&lt;/div&gt;&lt;/div&gt;&lt;/div&gt;&lt;div style=&quot;font-size: 16px&quot;&gt;&lt;/div&gt;&lt;/div&gt;" style="rounded=1;whiteSpace=wrap;html=1;fillColor=#E6E6E6;fontColor=#000000;fontSize=16;strokeColor=none;strokeWidth=2;" vertex="1" parent="3">
                    <mxGeometry x="230" y="110" width="60" height="30" as="geometry"/>
                </mxCell>
                <mxCell id="63" value="&lt;font color=&quot;#ffff00&quot;&gt;3&lt;/font&gt;" style="ellipse;whiteSpace=wrap;html=1;aspect=fixed;fontFamily=Helvetica;fontSize=10;fontColor=#ffffff;fillColor=#a20025;strokeColor=#6F0000;" vertex="1" parent="3">
                    <mxGeometry x="158.5" y="175" width="19.5" height="19.5" as="geometry"/>
                </mxCell>
                <mxCell id="64" value="&lt;div style=&quot;font-size: 16px&quot;&gt;&lt;div style=&quot;font-size: 16px&quot;&gt;&lt;div style=&quot;font-size: 16px&quot;&gt;&lt;div style=&quot;font-size: 16px&quot;&gt;&lt;div style=&quot;font-size: 16px&quot;&gt;姬酋&lt;br&gt;&lt;/div&gt;&lt;/div&gt;&lt;/div&gt;&lt;/div&gt;&lt;div style=&quot;font-size: 16px&quot;&gt;&lt;/div&gt;&lt;/div&gt;" style="rounded=1;whiteSpace=wrap;html=1;fillColor=#E6E6E6;fontColor=#000000;fontSize=16;strokeColor=none;strokeWidth=2;" vertex="1" parent="3">
                    <mxGeometry x="180" y="170" width="50" height="30" as="geometry"/>
                </mxCell>
                <mxCell id="65" value="&lt;div style=&quot;font-size: 14px&quot;&gt;&lt;div style=&quot;font-size: 14px&quot;&gt;&lt;div style=&quot;font-size: 14px&quot;&gt;&lt;div style=&quot;font-size: 14px&quot;&gt;&lt;div&gt;考公&lt;/div&gt;&lt;/div&gt;&lt;/div&gt;&lt;/div&gt;&lt;/div&gt;" style="text;html=1;align=center;verticalAlign=middle;resizable=0;points=[];autosize=1;strokeColor=none;fillColor=none;fontSize=14;fontColor=#000000;" vertex="1" parent="3">
                    <mxGeometry x="228" y="175" width="40" height="20" as="geometry"/>
                </mxCell>
                <mxCell id="68" value="&lt;font color=&quot;#ffff00&quot;&gt;4&lt;/font&gt;" style="ellipse;whiteSpace=wrap;html=1;aspect=fixed;fontFamily=Helvetica;fontSize=10;fontColor=#ffffff;fillColor=#a20025;strokeColor=#6F0000;" vertex="1" parent="3">
                    <mxGeometry x="275" y="175" width="19.5" height="19.5" as="geometry"/>
                </mxCell>
                <mxCell id="78" style="edgeStyle=orthogonalEdgeStyle;shape=connector;rounded=1;html=1;exitX=0.5;exitY=1;exitDx=0;exitDy=0;entryX=0.5;entryY=0;entryDx=0;entryDy=0;labelBackgroundColor=default;fontFamily=Helvetica;fontSize=16;fontColor=#000000;endArrow=blockThin;endFill=1;strokeColor=#000000;strokeWidth=1;" edge="1" parent="3" source="69" target="73">
                    <mxGeometry relative="1" as="geometry"/>
                </mxCell>
                <mxCell id="79" style="edgeStyle=orthogonalEdgeStyle;shape=connector;rounded=1;html=1;exitX=0.5;exitY=1;exitDx=0;exitDy=0;labelBackgroundColor=default;fontFamily=Helvetica;fontSize=16;fontColor=#000000;endArrow=blockThin;endFill=1;strokeColor=#000000;strokeWidth=1;" edge="1" parent="3" source="69" target="76">
                    <mxGeometry relative="1" as="geometry"/>
                </mxCell>
                <mxCell id="69" value="&lt;div style=&quot;font-size: 16px&quot;&gt;&lt;div style=&quot;font-size: 16px&quot;&gt;&lt;div style=&quot;font-size: 16px&quot;&gt;&lt;div style=&quot;font-size: 16px&quot;&gt;&lt;div style=&quot;font-size: 16px&quot;&gt;姬熙&lt;br&gt;&lt;/div&gt;&lt;/div&gt;&lt;/div&gt;&lt;/div&gt;&lt;div style=&quot;font-size: 16px&quot;&gt;&lt;/div&gt;&lt;/div&gt;" style="rounded=1;whiteSpace=wrap;html=1;fillColor=#E6E6E6;fontColor=#000000;fontSize=16;strokeColor=none;strokeWidth=2;" vertex="1" parent="3">
                    <mxGeometry x="296.5" y="170" width="50" height="30" as="geometry"/>
                </mxCell>
                <mxCell id="70" value="&lt;div style=&quot;font-size: 14px&quot;&gt;&lt;div style=&quot;font-size: 14px&quot;&gt;&lt;div style=&quot;font-size: 14px&quot;&gt;&lt;div style=&quot;font-size: 14px&quot;&gt;&lt;div&gt;炀公&lt;/div&gt;&lt;/div&gt;&lt;/div&gt;&lt;/div&gt;&lt;/div&gt;" style="text;html=1;align=center;verticalAlign=middle;resizable=0;points=[];autosize=1;strokeColor=none;fillColor=none;fontSize=14;fontColor=#000000;" vertex="1" parent="3">
                    <mxGeometry x="344.5" y="175" width="40" height="20" as="geometry"/>
                </mxCell>
                <mxCell id="72" value="&lt;font color=&quot;#ffff00&quot;&gt;5&lt;/font&gt;" style="ellipse;whiteSpace=wrap;html=1;aspect=fixed;fontFamily=Helvetica;fontSize=10;fontColor=#ffffff;fillColor=#a20025;strokeColor=#6F0000;" vertex="1" parent="3">
                    <mxGeometry x="220" y="235" width="19.5" height="19.5" as="geometry"/>
                </mxCell>
                <mxCell id="73" value="&lt;div style=&quot;font-size: 16px&quot;&gt;&lt;div style=&quot;font-size: 16px&quot;&gt;&lt;div style=&quot;font-size: 16px&quot;&gt;&lt;div style=&quot;font-size: 16px&quot;&gt;&lt;div style=&quot;font-size: 16px&quot;&gt;姬宰&lt;br&gt;&lt;/div&gt;&lt;/div&gt;&lt;/div&gt;&lt;/div&gt;&lt;div style=&quot;font-size: 16px&quot;&gt;&lt;/div&gt;&lt;/div&gt;" style="rounded=1;whiteSpace=wrap;html=1;fillColor=#E6E6E6;fontColor=#000000;fontSize=16;strokeColor=none;strokeWidth=2;" vertex="1" parent="3">
                    <mxGeometry x="241.5" y="230" width="50" height="30" as="geometry"/>
                </mxCell>
                <mxCell id="74" value="&lt;div style=&quot;font-size: 14px&quot;&gt;&lt;div style=&quot;font-size: 14px&quot;&gt;&lt;div style=&quot;font-size: 14px&quot;&gt;&lt;div style=&quot;font-size: 14px&quot;&gt;&lt;div&gt;幽公&lt;/div&gt;&lt;/div&gt;&lt;/div&gt;&lt;/div&gt;&lt;/div&gt;" style="text;html=1;align=center;verticalAlign=middle;resizable=0;points=[];autosize=1;strokeColor=none;fillColor=none;fontSize=14;fontColor=#000000;" vertex="1" parent="3">
                    <mxGeometry x="289.5" y="235" width="40" height="20" as="geometry"/>
                </mxCell>
                <mxCell id="75" value="&lt;font color=&quot;#ffff00&quot;&gt;6&lt;/font&gt;" style="ellipse;whiteSpace=wrap;html=1;aspect=fixed;fontFamily=Helvetica;fontSize=10;fontColor=#ffffff;fillColor=#a20025;strokeColor=#6F0000;" vertex="1" parent="3">
                    <mxGeometry x="335" y="235" width="19.5" height="19.5" as="geometry"/>
                </mxCell>
                <mxCell id="83" style="edgeStyle=orthogonalEdgeStyle;shape=connector;rounded=1;html=1;exitX=0.5;exitY=1;exitDx=0;exitDy=0;entryX=0.5;entryY=0;entryDx=0;entryDy=0;labelBackgroundColor=default;fontFamily=Helvetica;fontSize=16;fontColor=#000000;endArrow=blockThin;endFill=1;strokeColor=#000000;strokeWidth=1;" edge="1" parent="3" source="76" target="81">
                    <mxGeometry relative="1" as="geometry"/>
                </mxCell>
                <mxCell id="87" style="edgeStyle=orthogonalEdgeStyle;shape=connector;rounded=1;html=1;exitX=0.5;exitY=1;exitDx=0;exitDy=0;entryX=0.5;entryY=0;entryDx=0;entryDy=0;labelBackgroundColor=default;fontFamily=Helvetica;fontSize=16;fontColor=#000000;endArrow=blockThin;endFill=1;strokeColor=#000000;strokeWidth=1;" edge="1" parent="3" source="76" target="85">
                    <mxGeometry relative="1" as="geometry"/>
                </mxCell>
                <mxCell id="76" value="&lt;div style=&quot;font-size: 16px&quot;&gt;&lt;div style=&quot;font-size: 16px&quot;&gt;&lt;div style=&quot;font-size: 16px&quot;&gt;&lt;div style=&quot;font-size: 16px&quot;&gt;&lt;div style=&quot;font-size: 16px&quot;&gt;姬沸&lt;br&gt;&lt;/div&gt;&lt;/div&gt;&lt;/div&gt;&lt;/div&gt;&lt;div style=&quot;font-size: 16px&quot;&gt;&lt;/div&gt;&lt;/div&gt;" style="rounded=1;whiteSpace=wrap;html=1;fillColor=#E6E6E6;fontColor=#000000;fontSize=16;strokeColor=none;strokeWidth=2;" vertex="1" parent="3">
                    <mxGeometry x="356.5" y="230" width="50" height="30" as="geometry"/>
                </mxCell>
                <mxCell id="77" value="&lt;div style=&quot;font-size: 14px&quot;&gt;&lt;div style=&quot;font-size: 14px&quot;&gt;&lt;div style=&quot;font-size: 14px&quot;&gt;&lt;div style=&quot;font-size: 14px&quot;&gt;&lt;div&gt;微公&lt;/div&gt;&lt;/div&gt;&lt;/div&gt;&lt;/div&gt;&lt;/div&gt;" style="text;html=1;align=center;verticalAlign=middle;resizable=0;points=[];autosize=1;strokeColor=none;fillColor=none;fontSize=14;fontColor=#000000;" vertex="1" parent="3">
                    <mxGeometry x="404.5" y="235" width="40" height="20" as="geometry"/>
                </mxCell>
                <mxCell id="80" value="&lt;font color=&quot;#ffff00&quot;&gt;7&lt;/font&gt;" style="ellipse;whiteSpace=wrap;html=1;aspect=fixed;fontFamily=Helvetica;fontSize=10;fontColor=#ffffff;fillColor=#a20025;strokeColor=#6F0000;" vertex="1" parent="3">
                    <mxGeometry x="283" y="295" width="19.5" height="19.5" as="geometry"/>
                </mxCell>
                <mxCell id="81" value="&lt;div style=&quot;font-size: 16px&quot;&gt;&lt;div style=&quot;font-size: 16px&quot;&gt;&lt;div style=&quot;font-size: 16px&quot;&gt;&lt;div style=&quot;font-size: 16px&quot;&gt;&lt;div style=&quot;font-size: 16px&quot;&gt;姬擢&lt;br&gt;&lt;/div&gt;&lt;/div&gt;&lt;/div&gt;&lt;/div&gt;&lt;div style=&quot;font-size: 16px&quot;&gt;&lt;/div&gt;&lt;/div&gt;" style="rounded=1;whiteSpace=wrap;html=1;fillColor=#E6E6E6;fontColor=#000000;fontSize=16;strokeColor=none;strokeWidth=2;" vertex="1" parent="3">
                    <mxGeometry x="304.5" y="290" width="50" height="30" as="geometry"/>
                </mxCell>
                <mxCell id="82" value="&lt;div style=&quot;font-size: 14px&quot;&gt;&lt;div style=&quot;font-size: 14px&quot;&gt;&lt;div style=&quot;font-size: 14px&quot;&gt;&lt;div style=&quot;font-size: 14px&quot;&gt;&lt;div&gt;厉公&lt;/div&gt;&lt;/div&gt;&lt;/div&gt;&lt;/div&gt;&lt;/div&gt;" style="text;html=1;align=center;verticalAlign=middle;resizable=0;points=[];autosize=1;strokeColor=none;fillColor=none;fontSize=14;fontColor=#000000;" vertex="1" parent="3">
                    <mxGeometry x="352.5" y="295" width="40" height="20" as="geometry"/>
                </mxCell>
                <mxCell id="84" value="&lt;font color=&quot;#ffff00&quot;&gt;8&lt;/font&gt;" style="ellipse;whiteSpace=wrap;html=1;aspect=fixed;fontFamily=Helvetica;fontSize=10;fontColor=#ffffff;fillColor=#a20025;strokeColor=#6F0000;" vertex="1" parent="3">
                    <mxGeometry x="398" y="295" width="19.5" height="19.5" as="geometry"/>
                </mxCell>
                <mxCell id="91" style="edgeStyle=orthogonalEdgeStyle;shape=connector;rounded=1;html=1;exitX=0.5;exitY=1;exitDx=0;exitDy=0;entryX=0.5;entryY=0;entryDx=0;entryDy=0;labelBackgroundColor=default;fontFamily=Helvetica;fontSize=16;fontColor=#000000;endArrow=blockThin;endFill=1;strokeColor=#000000;strokeWidth=1;" edge="1" parent="3" source="85" target="89">
                    <mxGeometry relative="1" as="geometry"/>
                </mxCell>
                <mxCell id="95" style="edgeStyle=orthogonalEdgeStyle;shape=connector;rounded=1;html=1;exitX=0.5;exitY=1;exitDx=0;exitDy=0;entryX=0.5;entryY=0;entryDx=0;entryDy=0;labelBackgroundColor=default;fontFamily=Helvetica;fontSize=16;fontColor=#000000;endArrow=blockThin;endFill=1;strokeColor=#000000;strokeWidth=1;" edge="1" parent="3" source="85" target="93">
                    <mxGeometry relative="1" as="geometry"/>
                </mxCell>
                <mxCell id="85" value="&lt;div style=&quot;font-size: 16px&quot;&gt;&lt;div style=&quot;font-size: 16px&quot;&gt;&lt;div style=&quot;font-size: 16px&quot;&gt;&lt;div style=&quot;font-size: 16px&quot;&gt;&lt;div style=&quot;font-size: 16px&quot;&gt;姬具&lt;br&gt;&lt;/div&gt;&lt;/div&gt;&lt;/div&gt;&lt;/div&gt;&lt;div style=&quot;font-size: 16px&quot;&gt;&lt;/div&gt;&lt;/div&gt;" style="rounded=1;whiteSpace=wrap;html=1;fillColor=#E6E6E6;fontColor=#000000;fontSize=16;strokeColor=none;strokeWidth=2;" vertex="1" parent="3">
                    <mxGeometry x="419.5" y="290" width="50" height="30" as="geometry"/>
                </mxCell>
                <mxCell id="86" value="&lt;div style=&quot;font-size: 14px&quot;&gt;&lt;div style=&quot;font-size: 14px&quot;&gt;&lt;div style=&quot;font-size: 14px&quot;&gt;&lt;div style=&quot;font-size: 14px&quot;&gt;&lt;div&gt;献公&lt;/div&gt;&lt;/div&gt;&lt;/div&gt;&lt;/div&gt;&lt;/div&gt;" style="text;html=1;align=center;verticalAlign=middle;resizable=0;points=[];autosize=1;strokeColor=none;fillColor=none;fontSize=14;fontColor=#000000;" vertex="1" parent="3">
                    <mxGeometry x="467.5" y="295" width="40" height="20" as="geometry"/>
                </mxCell>
                <mxCell id="88" value="&lt;font color=&quot;#ffff00&quot;&gt;9&lt;/font&gt;" style="ellipse;whiteSpace=wrap;html=1;aspect=fixed;fontFamily=Helvetica;fontSize=10;fontColor=#ffffff;fillColor=#a20025;strokeColor=#6F0000;" vertex="1" parent="3">
                    <mxGeometry x="345" y="355" width="19.5" height="19.5" as="geometry"/>
                </mxCell>
                <mxCell id="89" value="&lt;div style=&quot;font-size: 16px&quot;&gt;&lt;div style=&quot;font-size: 16px&quot;&gt;&lt;div style=&quot;font-size: 16px&quot;&gt;&lt;div style=&quot;font-size: 16px&quot;&gt;&lt;div style=&quot;font-size: 16px&quot;&gt;姬濞&lt;br&gt;&lt;/div&gt;&lt;/div&gt;&lt;/div&gt;&lt;/div&gt;&lt;div style=&quot;font-size: 16px&quot;&gt;&lt;/div&gt;&lt;/div&gt;" style="rounded=1;whiteSpace=wrap;html=1;fillColor=#E6E6E6;fontColor=#000000;fontSize=16;strokeColor=none;strokeWidth=2;" vertex="1" parent="3">
                    <mxGeometry x="366.5" y="350" width="50" height="30" as="geometry"/>
                </mxCell>
                <mxCell id="90" value="&lt;div style=&quot;font-size: 14px&quot;&gt;&lt;div style=&quot;font-size: 14px&quot;&gt;&lt;div style=&quot;font-size: 14px&quot;&gt;&lt;div style=&quot;font-size: 14px&quot;&gt;&lt;div&gt;慎公&lt;/div&gt;&lt;/div&gt;&lt;/div&gt;&lt;/div&gt;&lt;/div&gt;" style="text;html=1;align=center;verticalAlign=middle;resizable=0;points=[];autosize=1;strokeColor=none;fillColor=none;fontSize=14;fontColor=#000000;" vertex="1" parent="3">
                    <mxGeometry x="414.5" y="355" width="40" height="20" as="geometry"/>
                </mxCell>
                <mxCell id="92" value="&lt;font color=&quot;#ffff00&quot;&gt;10&lt;/font&gt;" style="ellipse;whiteSpace=wrap;html=1;aspect=fixed;fontFamily=Helvetica;fontSize=10;fontColor=#ffffff;fillColor=#a20025;strokeColor=#6F0000;" vertex="1" parent="3">
                    <mxGeometry x="457" y="355" width="19.5" height="19.5" as="geometry"/>
                </mxCell>
                <mxCell id="103" style="edgeStyle=orthogonalEdgeStyle;shape=connector;rounded=1;html=1;exitX=0.5;exitY=1;exitDx=0;exitDy=0;entryX=0.5;entryY=0;entryDx=0;entryDy=0;labelBackgroundColor=default;fontFamily=Helvetica;fontSize=16;fontColor=#000000;endArrow=blockThin;endFill=1;strokeColor=#000000;strokeWidth=1;" edge="1" parent="3" source="93" target="99">
                    <mxGeometry relative="1" as="geometry"/>
                </mxCell>
                <mxCell id="104" style="edgeStyle=orthogonalEdgeStyle;shape=connector;rounded=1;html=1;exitX=0.5;exitY=1;exitDx=0;exitDy=0;entryX=0.5;entryY=0;entryDx=0;entryDy=0;labelBackgroundColor=default;fontFamily=Helvetica;fontSize=16;fontColor=#000000;endArrow=blockThin;endFill=1;strokeColor=#000000;strokeWidth=1;" edge="1" parent="3" source="93" target="97">
                    <mxGeometry relative="1" as="geometry"/>
                </mxCell>
                <mxCell id="105" style="edgeStyle=orthogonalEdgeStyle;shape=connector;rounded=1;html=1;exitX=0.5;exitY=1;exitDx=0;exitDy=0;entryX=0.5;entryY=0;entryDx=0;entryDy=0;labelBackgroundColor=default;fontFamily=Helvetica;fontSize=16;fontColor=#000000;endArrow=blockThin;endFill=1;strokeColor=#000000;strokeWidth=1;" edge="1" parent="3" source="93" target="101">
                    <mxGeometry relative="1" as="geometry"/>
                </mxCell>
                <mxCell id="93" value="&lt;div style=&quot;font-size: 16px&quot;&gt;&lt;div style=&quot;font-size: 16px&quot;&gt;&lt;div style=&quot;font-size: 16px&quot;&gt;&lt;div style=&quot;font-size: 16px&quot;&gt;&lt;div style=&quot;font-size: 16px&quot;&gt;姬敖&lt;br&gt;&lt;/div&gt;&lt;/div&gt;&lt;/div&gt;&lt;/div&gt;&lt;div style=&quot;font-size: 16px&quot;&gt;&lt;/div&gt;&lt;/div&gt;" style="rounded=1;whiteSpace=wrap;html=1;fillColor=#E6E6E6;fontColor=#000000;fontSize=16;strokeColor=none;strokeWidth=2;" vertex="1" parent="3">
                    <mxGeometry x="478.5" y="350" width="50" height="30" as="geometry"/>
                </mxCell>
                <mxCell id="94" value="&lt;div style=&quot;font-size: 14px&quot;&gt;&lt;div style=&quot;font-size: 14px&quot;&gt;&lt;div style=&quot;font-size: 14px&quot;&gt;&lt;div style=&quot;font-size: 14px&quot;&gt;&lt;div&gt;武公&lt;/div&gt;&lt;/div&gt;&lt;/div&gt;&lt;/div&gt;&lt;/div&gt;" style="text;html=1;align=center;verticalAlign=middle;resizable=0;points=[];autosize=1;strokeColor=none;fillColor=none;fontSize=14;fontColor=#000000;" vertex="1" parent="3">
                    <mxGeometry x="526.5" y="355" width="40" height="20" as="geometry"/>
                </mxCell>
                <mxCell id="96" value="&lt;font color=&quot;#ffff00&quot;&gt;11&lt;/font&gt;" style="ellipse;whiteSpace=wrap;html=1;aspect=fixed;fontFamily=Helvetica;fontSize=10;fontColor=#ffffff;fillColor=#a20025;strokeColor=#6F0000;" vertex="1" parent="3">
                    <mxGeometry x="457" y="415" width="19.5" height="19.5" as="geometry"/>
                </mxCell>
                <mxCell id="97" value="&lt;div style=&quot;font-size: 16px&quot;&gt;&lt;div style=&quot;font-size: 16px&quot;&gt;&lt;div style=&quot;font-size: 16px&quot;&gt;&lt;div style=&quot;font-size: 16px&quot;&gt;&lt;div style=&quot;font-size: 16px&quot;&gt;姬戏&lt;br&gt;&lt;/div&gt;&lt;/div&gt;&lt;/div&gt;&lt;/div&gt;&lt;div style=&quot;font-size: 16px&quot;&gt;&lt;/div&gt;&lt;/div&gt;" style="rounded=1;whiteSpace=wrap;html=1;fillColor=#E6E6E6;fontColor=#000000;fontSize=16;strokeColor=none;strokeWidth=2;" vertex="1" parent="3">
                    <mxGeometry x="478.5" y="410" width="50" height="30" as="geometry"/>
                </mxCell>
                <mxCell id="98" value="&lt;div style=&quot;font-size: 14px&quot;&gt;&lt;div style=&quot;font-size: 14px&quot;&gt;&lt;div style=&quot;font-size: 14px&quot;&gt;&lt;div style=&quot;font-size: 14px&quot;&gt;&lt;div&gt;懿公&lt;/div&gt;&lt;/div&gt;&lt;/div&gt;&lt;/div&gt;&lt;/div&gt;" style="text;html=1;align=center;verticalAlign=middle;resizable=0;points=[];autosize=1;strokeColor=none;fillColor=none;fontSize=14;fontColor=#000000;" vertex="1" parent="3">
                    <mxGeometry x="526.5" y="415" width="40" height="20" as="geometry"/>
                </mxCell>
                <mxCell id="99" value="&lt;div style=&quot;font-size: 16px&quot;&gt;&lt;div style=&quot;font-size: 16px&quot;&gt;&lt;div style=&quot;font-size: 16px&quot;&gt;&lt;div style=&quot;font-size: 16px&quot;&gt;&lt;div style=&quot;font-size: 16px&quot;&gt;姬括&lt;br&gt;&lt;/div&gt;&lt;/div&gt;&lt;/div&gt;&lt;/div&gt;&lt;div style=&quot;font-size: 16px&quot;&gt;&lt;/div&gt;&lt;/div&gt;" style="rounded=1;whiteSpace=wrap;html=1;fillColor=#E6E6E6;fontColor=#000000;fontSize=16;strokeColor=none;strokeWidth=2;" vertex="1" parent="3">
                    <mxGeometry x="400" y="410" width="50" height="30" as="geometry"/>
                </mxCell>
                <mxCell id="100" value="&lt;font color=&quot;#ffff00&quot;&gt;12&lt;/font&gt;" style="ellipse;whiteSpace=wrap;html=1;aspect=fixed;fontFamily=Helvetica;fontSize=10;fontColor=#ffffff;fillColor=#a20025;strokeColor=#6F0000;" vertex="1" parent="3">
                    <mxGeometry x="570" y="415" width="19.5" height="19.5" as="geometry"/>
                </mxCell>
                <mxCell id="109" style="edgeStyle=orthogonalEdgeStyle;shape=connector;rounded=1;html=1;exitX=0.5;exitY=1;exitDx=0;exitDy=0;labelBackgroundColor=default;fontFamily=Helvetica;fontSize=16;fontColor=#000000;endArrow=blockThin;endFill=1;strokeColor=#000000;strokeWidth=1;" edge="1" parent="3" source="101" target="107">
                    <mxGeometry relative="1" as="geometry"/>
                </mxCell>
                <mxCell id="101" value="&lt;div style=&quot;font-size: 16px&quot;&gt;&lt;div style=&quot;font-size: 16px&quot;&gt;&lt;div style=&quot;font-size: 16px&quot;&gt;&lt;div style=&quot;font-size: 16px&quot;&gt;&lt;div style=&quot;font-size: 16px&quot;&gt;姬称&lt;br&gt;&lt;/div&gt;&lt;/div&gt;&lt;/div&gt;&lt;/div&gt;&lt;div style=&quot;font-size: 16px&quot;&gt;&lt;/div&gt;&lt;/div&gt;" style="rounded=1;whiteSpace=wrap;html=1;fillColor=#E6E6E6;fontColor=#000000;fontSize=16;strokeColor=none;strokeWidth=2;" vertex="1" parent="3">
                    <mxGeometry x="591.5" y="410" width="50" height="30" as="geometry"/>
                </mxCell>
                <mxCell id="102" value="&lt;div style=&quot;font-size: 14px&quot;&gt;&lt;div style=&quot;font-size: 14px&quot;&gt;&lt;div style=&quot;font-size: 14px&quot;&gt;&lt;div style=&quot;font-size: 14px&quot;&gt;&lt;div&gt;孝公&lt;/div&gt;&lt;/div&gt;&lt;/div&gt;&lt;/div&gt;&lt;/div&gt;" style="text;html=1;align=center;verticalAlign=middle;resizable=0;points=[];autosize=1;strokeColor=none;fillColor=none;fontSize=14;fontColor=#000000;" vertex="1" parent="3">
                    <mxGeometry x="639.5" y="415" width="40" height="20" as="geometry"/>
                </mxCell>
                <mxCell id="106" value="&lt;font color=&quot;#ffff00&quot;&gt;13&lt;/font&gt;" style="ellipse;whiteSpace=wrap;html=1;aspect=fixed;fontFamily=Helvetica;fontSize=10;fontColor=#ffffff;fillColor=#a20025;strokeColor=#6F0000;" vertex="1" parent="3">
                    <mxGeometry x="565" y="475" width="19.5" height="19.5" as="geometry"/>
                </mxCell>
                <mxCell id="119" style="edgeStyle=orthogonalEdgeStyle;shape=connector;rounded=1;html=1;exitX=0.5;exitY=1;exitDx=0;exitDy=0;entryX=0.5;entryY=0;entryDx=0;entryDy=0;labelBackgroundColor=default;fontFamily=Helvetica;fontSize=16;fontColor=#000000;endArrow=blockThin;endFill=1;strokeColor=#000000;strokeWidth=1;" edge="1" parent="3" source="107" target="111">
                    <mxGeometry relative="1" as="geometry">
                        <Array as="points">
                            <mxPoint x="617" y="510"/>
                            <mxPoint x="569" y="510"/>
                        </Array>
                    </mxGeometry>
                </mxCell>
                <mxCell id="120" style="edgeStyle=orthogonalEdgeStyle;shape=connector;rounded=1;html=1;exitX=0.5;exitY=1;exitDx=0;exitDy=0;entryX=0.5;entryY=0;entryDx=0;entryDy=0;labelBackgroundColor=default;fontFamily=Helvetica;fontSize=16;fontColor=#000000;endArrow=blockThin;endFill=1;strokeColor=#000000;strokeWidth=1;" edge="1" parent="3" source="107" target="114">
                    <mxGeometry relative="1" as="geometry">
                        <Array as="points">
                            <mxPoint x="617" y="510"/>
                            <mxPoint x="675" y="510"/>
                        </Array>
                    </mxGeometry>
                </mxCell>
                <mxCell id="107" value="&lt;div style=&quot;font-size: 16px&quot;&gt;&lt;div style=&quot;font-size: 16px&quot;&gt;&lt;div style=&quot;font-size: 16px&quot;&gt;&lt;div style=&quot;font-size: 16px&quot;&gt;&lt;div style=&quot;font-size: 16px&quot;&gt;姬弗湟&lt;br&gt;&lt;/div&gt;&lt;/div&gt;&lt;/div&gt;&lt;/div&gt;&lt;div style=&quot;font-size: 16px&quot;&gt;&lt;/div&gt;&lt;/div&gt;" style="rounded=1;whiteSpace=wrap;html=1;fillColor=#E6E6E6;fontColor=#000000;fontSize=16;strokeColor=none;strokeWidth=2;" vertex="1" parent="3">
                    <mxGeometry x="586.5" y="470" width="60" height="30" as="geometry"/>
                </mxCell>
                <mxCell id="108" value="&lt;div style=&quot;font-size: 14px&quot;&gt;&lt;div style=&quot;font-size: 14px&quot;&gt;&lt;div style=&quot;font-size: 14px&quot;&gt;&lt;div style=&quot;font-size: 14px&quot;&gt;&lt;div&gt;惠公&lt;/div&gt;&lt;/div&gt;&lt;/div&gt;&lt;/div&gt;&lt;/div&gt;" style="text;html=1;align=center;verticalAlign=middle;resizable=0;points=[];autosize=1;strokeColor=none;fillColor=none;fontSize=14;fontColor=#000000;" vertex="1" parent="3">
                    <mxGeometry x="644.5" y="475" width="40" height="20" as="geometry"/>
                </mxCell>
                <mxCell id="110" value="&lt;font color=&quot;#ffff00&quot;&gt;14&lt;/font&gt;" style="ellipse;whiteSpace=wrap;html=1;aspect=fixed;fontFamily=Helvetica;fontSize=10;fontColor=#ffffff;fillColor=#a20025;strokeColor=#6F0000;" vertex="1" parent="3">
                    <mxGeometry x="514" y="546" width="19.5" height="19.5" as="geometry"/>
                </mxCell>
                <mxCell id="111" value="&lt;div style=&quot;font-size: 16px&quot;&gt;&lt;div style=&quot;font-size: 16px&quot;&gt;&lt;div style=&quot;font-size: 16px&quot;&gt;&lt;div style=&quot;font-size: 16px&quot;&gt;&lt;div style=&quot;font-size: 16px&quot;&gt;姬息&lt;br&gt;&lt;/div&gt;&lt;/div&gt;&lt;/div&gt;&lt;/div&gt;&lt;div style=&quot;font-size: 16px&quot;&gt;&lt;/div&gt;&lt;/div&gt;" style="rounded=1;whiteSpace=wrap;html=1;fillColor=#E6E6E6;fontColor=#000000;fontSize=16;strokeColor=none;strokeWidth=2;" vertex="1" parent="3">
                    <mxGeometry x="543.5" y="541" width="50" height="30" as="geometry"/>
                </mxCell>
                <mxCell id="112" value="&lt;div style=&quot;font-size: 14px&quot;&gt;&lt;div style=&quot;font-size: 14px&quot;&gt;&lt;div style=&quot;font-size: 14px&quot;&gt;&lt;div style=&quot;font-size: 14px&quot;&gt;&lt;div&gt;隐公&lt;/div&gt;&lt;/div&gt;&lt;/div&gt;&lt;/div&gt;&lt;/div&gt;" style="text;html=1;align=center;verticalAlign=middle;resizable=0;points=[];autosize=1;strokeColor=none;fillColor=none;fontSize=14;fontColor=#000000;" vertex="1" parent="3">
                    <mxGeometry x="590.5" y="546" width="40" height="20" as="geometry"/>
                </mxCell>
                <mxCell id="124" style="edgeStyle=orthogonalEdgeStyle;shape=connector;rounded=1;html=1;exitX=0.5;exitY=1;exitDx=0;exitDy=0;entryX=0.5;entryY=0;entryDx=0;entryDy=0;labelBackgroundColor=default;fontFamily=Helvetica;fontSize=16;fontColor=#000000;endArrow=blockThin;endFill=1;strokeColor=#000000;strokeWidth=1;" edge="1" parent="3" source="114" target="121">
                    <mxGeometry relative="1" as="geometry"/>
                </mxCell>
                <mxCell id="135" style="edgeStyle=orthogonalEdgeStyle;shape=connector;rounded=1;html=1;exitX=0.5;exitY=1;exitDx=0;exitDy=0;entryX=0.5;entryY=0;entryDx=0;entryDy=0;labelBackgroundColor=default;fontFamily=Helvetica;fontSize=16;fontColor=#000000;endArrow=blockThin;endFill=1;strokeColor=#000000;strokeWidth=1;" edge="1" parent="3" source="114" target="128">
                    <mxGeometry relative="1" as="geometry"/>
                </mxCell>
                <mxCell id="136" style="edgeStyle=orthogonalEdgeStyle;shape=connector;rounded=1;html=1;exitX=0.5;exitY=1;exitDx=0;exitDy=0;labelBackgroundColor=default;fontFamily=Helvetica;fontSize=16;fontColor=#000000;endArrow=blockThin;endFill=1;strokeColor=#000000;strokeWidth=1;" edge="1" parent="3" source="114" target="129">
                    <mxGeometry relative="1" as="geometry"/>
                </mxCell>
                <mxCell id="137" style="edgeStyle=orthogonalEdgeStyle;shape=connector;rounded=1;html=1;exitX=0.5;exitY=1;exitDx=0;exitDy=0;entryX=0.5;entryY=0;entryDx=0;entryDy=0;labelBackgroundColor=default;fontFamily=Helvetica;fontSize=16;fontColor=#000000;endArrow=blockThin;endFill=1;strokeColor=#000000;strokeWidth=1;" edge="1" parent="3" source="114" target="130">
                    <mxGeometry relative="1" as="geometry"/>
                </mxCell>
                <mxCell id="114" value="&lt;div style=&quot;font-size: 16px&quot;&gt;&lt;div style=&quot;font-size: 16px&quot;&gt;&lt;div style=&quot;font-size: 16px&quot;&gt;&lt;div style=&quot;font-size: 16px&quot;&gt;&lt;div style=&quot;font-size: 16px&quot;&gt;姬允&lt;br&gt;&lt;/div&gt;&lt;/div&gt;&lt;/div&gt;&lt;/div&gt;&lt;div style=&quot;font-size: 16px&quot;&gt;&lt;/div&gt;&lt;/div&gt;" style="rounded=1;whiteSpace=wrap;html=1;fillColor=#E6E6E6;fontColor=#000000;fontSize=16;strokeColor=none;strokeWidth=2;" vertex="1" parent="3">
                    <mxGeometry x="650" y="541" width="50" height="30" as="geometry"/>
                </mxCell>
                <mxCell id="117" value="&lt;font color=&quot;#ffff00&quot;&gt;15&lt;/font&gt;" style="ellipse;whiteSpace=wrap;html=1;aspect=fixed;fontFamily=Helvetica;fontSize=10;fontColor=#ffffff;fillColor=#a20025;strokeColor=#6F0000;" vertex="1" parent="3">
                    <mxGeometry x="629" y="546" width="19.5" height="19.5" as="geometry"/>
                </mxCell>
                <mxCell id="118" value="&lt;div style=&quot;font-size: 14px&quot;&gt;&lt;div style=&quot;font-size: 14px&quot;&gt;&lt;div style=&quot;font-size: 14px&quot;&gt;&lt;div style=&quot;font-size: 14px&quot;&gt;&lt;div&gt;桓公&lt;/div&gt;&lt;/div&gt;&lt;/div&gt;&lt;/div&gt;&lt;/div&gt;" style="text;html=1;align=center;verticalAlign=middle;resizable=0;points=[];autosize=1;strokeColor=none;fillColor=none;fontSize=14;fontColor=#000000;" vertex="1" parent="3">
                    <mxGeometry x="697" y="546" width="40" height="20" as="geometry"/>
                </mxCell>
                <mxCell id="126" style="edgeStyle=orthogonalEdgeStyle;shape=connector;rounded=1;html=1;exitX=0.5;exitY=1;exitDx=0;exitDy=0;entryX=0.5;entryY=0;entryDx=0;entryDy=0;labelBackgroundColor=default;fontFamily=Helvetica;fontSize=16;fontColor=#000000;endArrow=blockThin;endFill=1;strokeColor=#000000;strokeWidth=1;" edge="1" parent="3" source="121" target="125">
                    <mxGeometry relative="1" as="geometry">
                        <Array as="points">
                            <mxPoint x="675" y="660"/>
                            <mxPoint x="627" y="660"/>
                        </Array>
                    </mxGeometry>
                </mxCell>
                <mxCell id="134" style="edgeStyle=orthogonalEdgeStyle;shape=connector;rounded=1;html=1;exitX=0.5;exitY=1;exitDx=0;exitDy=0;entryX=0.5;entryY=0;entryDx=0;entryDy=0;labelBackgroundColor=default;fontFamily=Helvetica;fontSize=16;fontColor=#000000;endArrow=blockThin;endFill=1;strokeColor=#000000;strokeWidth=1;" edge="1" parent="3" source="121" target="132">
                    <mxGeometry relative="1" as="geometry">
                        <Array as="points">
                            <mxPoint x="675" y="660"/>
                            <mxPoint x="719" y="660"/>
                        </Array>
                    </mxGeometry>
                </mxCell>
                <mxCell id="143" style="edgeStyle=orthogonalEdgeStyle;shape=connector;rounded=1;html=1;exitX=0.5;exitY=1;exitDx=0;exitDy=0;entryX=0.5;entryY=0;entryDx=0;entryDy=0;labelBackgroundColor=default;fontFamily=Helvetica;fontSize=16;fontColor=#000000;endArrow=blockThin;endFill=1;strokeColor=#000000;strokeWidth=1;" edge="1" parent="3" source="121" target="141">
                    <mxGeometry relative="1" as="geometry">
                        <Array as="points">
                            <mxPoint x="675" y="660"/>
                            <mxPoint x="826" y="660"/>
                        </Array>
                    </mxGeometry>
                </mxCell>
                <mxCell id="121" value="&lt;div style=&quot;font-size: 16px&quot;&gt;&lt;div style=&quot;font-size: 16px&quot;&gt;&lt;div style=&quot;font-size: 16px&quot;&gt;&lt;div style=&quot;font-size: 16px&quot;&gt;&lt;div style=&quot;font-size: 16px&quot;&gt;姬同&lt;br&gt;&lt;/div&gt;&lt;/div&gt;&lt;/div&gt;&lt;/div&gt;&lt;div style=&quot;font-size: 16px&quot;&gt;&lt;/div&gt;&lt;/div&gt;" style="rounded=1;whiteSpace=wrap;html=1;fillColor=#E6E6E6;fontColor=#000000;fontSize=16;strokeColor=none;strokeWidth=2;" vertex="1" parent="3">
                    <mxGeometry x="650" y="610" width="50" height="30" as="geometry"/>
                </mxCell>
                <mxCell id="122" value="&lt;font color=&quot;#ffff00&quot;&gt;16&lt;/font&gt;" style="ellipse;whiteSpace=wrap;html=1;aspect=fixed;fontFamily=Helvetica;fontSize=10;fontColor=#ffffff;fillColor=#a20025;strokeColor=#6F0000;" vertex="1" parent="3">
                    <mxGeometry x="629" y="615" width="19.5" height="19.5" as="geometry"/>
                </mxCell>
                <mxCell id="123" value="&lt;div style=&quot;font-size: 14px&quot;&gt;&lt;div style=&quot;font-size: 14px&quot;&gt;&lt;div style=&quot;font-size: 14px&quot;&gt;&lt;div style=&quot;font-size: 14px&quot;&gt;&lt;div&gt;庄公&lt;/div&gt;&lt;/div&gt;&lt;/div&gt;&lt;/div&gt;&lt;/div&gt;" style="text;html=1;align=center;verticalAlign=middle;resizable=0;points=[];autosize=1;strokeColor=none;fillColor=none;fontSize=14;fontColor=#000000;" vertex="1" parent="3">
                    <mxGeometry x="697" y="616" width="40" height="20" as="geometry"/>
                </mxCell>
                <mxCell id="125" value="&lt;div style=&quot;font-size: 16px&quot;&gt;&lt;div style=&quot;font-size: 16px&quot;&gt;&lt;div style=&quot;font-size: 16px&quot;&gt;&lt;div style=&quot;font-size: 16px&quot;&gt;&lt;div style=&quot;font-size: 16px&quot;&gt;姬斑&lt;br&gt;&lt;/div&gt;&lt;/div&gt;&lt;/div&gt;&lt;/div&gt;&lt;div style=&quot;font-size: 16px&quot;&gt;&lt;/div&gt;&lt;/div&gt;" style="rounded=1;whiteSpace=wrap;html=1;fillColor=#E6E6E6;fontColor=#000000;fontSize=16;strokeColor=none;strokeWidth=2;" vertex="1" parent="3">
                    <mxGeometry x="602" y="690" width="50" height="30" as="geometry"/>
                </mxCell>
                <mxCell id="127" value="&lt;div style=&quot;font-size: 14px&quot;&gt;&lt;div style=&quot;font-size: 14px&quot;&gt;&lt;div style=&quot;font-size: 14px&quot;&gt;&lt;div style=&quot;font-size: 14px&quot;&gt;&lt;div style=&quot;font-size: 14px&quot;&gt;&lt;div style=&quot;font-size: 14px&quot;&gt;&lt;div&gt;孟女&lt;/div&gt;&lt;/div&gt;&lt;/div&gt;&lt;/div&gt;&lt;/div&gt;&lt;/div&gt;&lt;/div&gt;" style="text;html=1;align=center;verticalAlign=middle;resizable=0;points=[];autosize=1;strokeColor=none;fillColor=none;fontSize=14;fontColor=#000000;" vertex="1" parent="3">
                    <mxGeometry x="626" y="666" width="40" height="20" as="geometry"/>
                </mxCell>
                <mxCell id="128" value="&lt;div style=&quot;font-size: 16px&quot;&gt;&lt;div style=&quot;font-size: 16px&quot;&gt;&lt;div style=&quot;font-size: 16px&quot;&gt;&lt;div style=&quot;font-size: 16px&quot;&gt;&lt;div style=&quot;font-size: 16px&quot;&gt;姬庆父&lt;br&gt;&lt;/div&gt;&lt;/div&gt;&lt;/div&gt;&lt;/div&gt;&lt;div style=&quot;font-size: 16px&quot;&gt;&lt;/div&gt;&lt;/div&gt;" style="rounded=1;whiteSpace=wrap;html=1;fillColor=#E6E6E6;fontColor=#000000;fontSize=16;strokeColor=none;strokeWidth=2;" vertex="1" parent="3">
                    <mxGeometry x="740" y="610" width="60" height="30" as="geometry"/>
                </mxCell>
                <mxCell id="129" value="&lt;div style=&quot;font-size: 16px&quot;&gt;&lt;div style=&quot;font-size: 16px&quot;&gt;&lt;div style=&quot;font-size: 16px&quot;&gt;&lt;div style=&quot;font-size: 16px&quot;&gt;&lt;div style=&quot;font-size: 16px&quot;&gt;姬叔牙&lt;br&gt;&lt;/div&gt;&lt;/div&gt;&lt;/div&gt;&lt;/div&gt;&lt;div style=&quot;font-size: 16px&quot;&gt;&lt;/div&gt;&lt;/div&gt;" style="rounded=1;whiteSpace=wrap;html=1;fillColor=#E6E6E6;fontColor=#000000;fontSize=16;strokeColor=none;strokeWidth=2;" vertex="1" parent="3">
                    <mxGeometry x="810" y="610" width="60" height="30" as="geometry"/>
                </mxCell>
                <mxCell id="130" value="&lt;div style=&quot;font-size: 16px&quot;&gt;&lt;div style=&quot;font-size: 16px&quot;&gt;&lt;div style=&quot;font-size: 16px&quot;&gt;&lt;div style=&quot;font-size: 16px&quot;&gt;&lt;div style=&quot;font-size: 16px&quot;&gt;姬季友&lt;br&gt;&lt;/div&gt;&lt;/div&gt;&lt;/div&gt;&lt;/div&gt;&lt;div style=&quot;font-size: 16px&quot;&gt;&lt;/div&gt;&lt;/div&gt;" style="rounded=1;whiteSpace=wrap;html=1;fillColor=#E6E6E6;fontColor=#000000;fontSize=16;strokeColor=none;strokeWidth=2;" vertex="1" parent="3">
                    <mxGeometry x="880" y="610" width="60" height="30" as="geometry"/>
                </mxCell>
                <mxCell id="131" value="&lt;font color=&quot;#ffff00&quot;&gt;18&lt;/font&gt;" style="ellipse;whiteSpace=wrap;html=1;aspect=fixed;fontFamily=Helvetica;fontSize=10;fontColor=#ffffff;fillColor=#a20025;strokeColor=#6F0000;" vertex="1" parent="3">
                    <mxGeometry x="673" y="695" width="19.5" height="19.5" as="geometry"/>
                </mxCell>
                <mxCell id="132" value="&lt;div style=&quot;font-size: 16px&quot;&gt;&lt;div style=&quot;font-size: 16px&quot;&gt;&lt;div style=&quot;font-size: 16px&quot;&gt;&lt;div style=&quot;font-size: 16px&quot;&gt;&lt;div style=&quot;font-size: 16px&quot;&gt;姬开&lt;br&gt;&lt;/div&gt;&lt;/div&gt;&lt;/div&gt;&lt;/div&gt;&lt;div style=&quot;font-size: 16px&quot;&gt;&lt;/div&gt;&lt;/div&gt;" style="rounded=1;whiteSpace=wrap;html=1;fillColor=#E6E6E6;fontColor=#000000;fontSize=16;strokeColor=none;strokeWidth=2;" vertex="1" parent="3">
                    <mxGeometry x="694" y="690" width="50" height="30" as="geometry"/>
                </mxCell>
                <mxCell id="133" value="&lt;div style=&quot;font-size: 14px&quot;&gt;&lt;div style=&quot;font-size: 14px&quot;&gt;&lt;div style=&quot;font-size: 14px&quot;&gt;&lt;div style=&quot;font-size: 14px&quot;&gt;&lt;div&gt;湣公&lt;/div&gt;&lt;/div&gt;&lt;/div&gt;&lt;/div&gt;&lt;/div&gt;" style="text;html=1;align=center;verticalAlign=middle;resizable=0;points=[];autosize=1;strokeColor=none;fillColor=none;fontSize=14;fontColor=#000000;" vertex="1" parent="3">
                    <mxGeometry x="741" y="695" width="40" height="20" as="geometry"/>
                </mxCell>
                <mxCell id="138" value="&lt;font color=&quot;#ffff00&quot;&gt;17&lt;/font&gt;" style="ellipse;whiteSpace=wrap;html=1;aspect=fixed;fontFamily=Helvetica;fontSize=10;fontColor=#ffffff;fillColor=#a20025;strokeColor=#6F0000;" vertex="1" parent="3">
                    <mxGeometry x="582" y="695" width="19.5" height="19.5" as="geometry"/>
                </mxCell>
                <mxCell id="139" value="&lt;div style=&quot;font-size: 14px&quot;&gt;&lt;div style=&quot;font-size: 14px&quot;&gt;&lt;div style=&quot;font-size: 14px&quot;&gt;&lt;div style=&quot;font-size: 14px&quot;&gt;&lt;div style=&quot;font-size: 14px&quot;&gt;&lt;div style=&quot;font-size: 14px&quot;&gt;&lt;div&gt;叔姜&lt;/div&gt;&lt;/div&gt;&lt;/div&gt;&lt;/div&gt;&lt;/div&gt;&lt;/div&gt;&lt;/div&gt;" style="text;html=1;align=center;verticalAlign=middle;resizable=0;points=[];autosize=1;strokeColor=none;fillColor=none;fontSize=14;fontColor=#000000;" vertex="1" parent="3">
                    <mxGeometry x="720" y="666" width="40" height="20" as="geometry"/>
                </mxCell>
                <mxCell id="140" value="&lt;font color=&quot;#ffff00&quot;&gt;19&lt;/font&gt;" style="ellipse;whiteSpace=wrap;html=1;aspect=fixed;fontFamily=Helvetica;fontSize=10;fontColor=#ffffff;fillColor=#a20025;strokeColor=#6F0000;" vertex="1" parent="3">
                    <mxGeometry x="780" y="695" width="19.5" height="19.5" as="geometry"/>
                </mxCell>
                <mxCell id="147" style="edgeStyle=orthogonalEdgeStyle;shape=connector;rounded=1;html=1;exitX=0.5;exitY=1;exitDx=0;exitDy=0;entryX=0.5;entryY=0;entryDx=0;entryDy=0;labelBackgroundColor=default;fontFamily=Helvetica;fontSize=16;fontColor=#000000;endArrow=blockThin;endFill=1;strokeColor=#000000;strokeWidth=1;" edge="1" parent="3" source="141" target="145">
                    <mxGeometry relative="1" as="geometry"/>
                </mxCell>
                <mxCell id="141" value="&lt;div style=&quot;font-size: 16px&quot;&gt;&lt;div style=&quot;font-size: 16px&quot;&gt;&lt;div style=&quot;font-size: 16px&quot;&gt;&lt;div style=&quot;font-size: 16px&quot;&gt;&lt;div style=&quot;font-size: 16px&quot;&gt;姬申&lt;br&gt;&lt;/div&gt;&lt;/div&gt;&lt;/div&gt;&lt;/div&gt;&lt;div style=&quot;font-size: 16px&quot;&gt;&lt;/div&gt;&lt;/div&gt;" style="rounded=1;whiteSpace=wrap;html=1;fillColor=#E6E6E6;fontColor=#000000;fontSize=16;strokeColor=none;strokeWidth=2;" vertex="1" parent="3">
                    <mxGeometry x="801" y="690" width="50" height="30" as="geometry"/>
                </mxCell>
                <mxCell id="142" value="&lt;div style=&quot;font-size: 14px&quot;&gt;&lt;div style=&quot;font-size: 14px&quot;&gt;&lt;div style=&quot;font-size: 14px&quot;&gt;&lt;div style=&quot;font-size: 14px&quot;&gt;&lt;div&gt;釐公&lt;/div&gt;&lt;/div&gt;&lt;/div&gt;&lt;/div&gt;&lt;/div&gt;" style="text;html=1;align=center;verticalAlign=middle;resizable=0;points=[];autosize=1;strokeColor=none;fillColor=none;fontSize=14;fontColor=#000000;" vertex="1" parent="3">
                    <mxGeometry x="848" y="695" width="40" height="20" as="geometry"/>
                </mxCell>
                <mxCell id="144" value="&lt;font color=&quot;#ffff00&quot;&gt;20&lt;/font&gt;" style="ellipse;whiteSpace=wrap;html=1;aspect=fixed;fontFamily=Helvetica;fontSize=10;fontColor=#ffffff;fillColor=#a20025;strokeColor=#6F0000;" vertex="1" parent="3">
                    <mxGeometry x="780" y="755" width="19.5" height="19.5" as="geometry"/>
                </mxCell>
                <mxCell id="153" style="edgeStyle=orthogonalEdgeStyle;shape=connector;rounded=1;html=1;exitX=0.5;exitY=1;exitDx=0;exitDy=0;entryX=0.5;entryY=0;entryDx=0;entryDy=0;labelBackgroundColor=default;fontFamily=Helvetica;fontSize=16;fontColor=#000000;endArrow=blockThin;endFill=1;strokeColor=#000000;strokeWidth=1;" edge="1" parent="3" source="145" target="148">
                    <mxGeometry relative="1" as="geometry">
                        <Array as="points">
                            <mxPoint x="826" y="790"/>
                            <mxPoint x="770" y="790"/>
                        </Array>
                    </mxGeometry>
                </mxCell>
                <mxCell id="154" style="edgeStyle=orthogonalEdgeStyle;shape=connector;rounded=1;html=1;exitX=0.5;exitY=1;exitDx=0;exitDy=0;entryX=0.5;entryY=0;entryDx=0;entryDy=0;labelBackgroundColor=default;fontFamily=Helvetica;fontSize=16;fontColor=#000000;endArrow=blockThin;endFill=1;strokeColor=#000000;strokeWidth=1;" edge="1" parent="3" source="145" target="149">
                    <mxGeometry relative="1" as="geometry"/>
                </mxCell>
                <mxCell id="155" style="edgeStyle=orthogonalEdgeStyle;shape=connector;rounded=1;html=1;exitX=0.5;exitY=1;exitDx=0;exitDy=0;entryX=0.5;entryY=0;entryDx=0;entryDy=0;labelBackgroundColor=default;fontFamily=Helvetica;fontSize=16;fontColor=#000000;endArrow=blockThin;endFill=1;strokeColor=#000000;strokeWidth=1;" edge="1" parent="3" source="145" target="151">
                    <mxGeometry relative="1" as="geometry">
                        <Array as="points">
                            <mxPoint x="826" y="790"/>
                            <mxPoint x="902" y="790"/>
                        </Array>
                    </mxGeometry>
                </mxCell>
                <mxCell id="145" value="&lt;div style=&quot;font-size: 16px&quot;&gt;&lt;div style=&quot;font-size: 16px&quot;&gt;&lt;div style=&quot;font-size: 16px&quot;&gt;&lt;div style=&quot;font-size: 16px&quot;&gt;&lt;div style=&quot;font-size: 16px&quot;&gt;姬兴&lt;br&gt;&lt;/div&gt;&lt;/div&gt;&lt;/div&gt;&lt;/div&gt;&lt;div style=&quot;font-size: 16px&quot;&gt;&lt;/div&gt;&lt;/div&gt;" style="rounded=1;whiteSpace=wrap;html=1;fillColor=#E6E6E6;fontColor=#000000;fontSize=16;strokeColor=none;strokeWidth=2;" vertex="1" parent="3">
                    <mxGeometry x="801" y="750" width="50" height="30" as="geometry"/>
                </mxCell>
                <mxCell id="146" value="&lt;div style=&quot;font-size: 14px&quot;&gt;&lt;div style=&quot;font-size: 14px&quot;&gt;&lt;div style=&quot;font-size: 14px&quot;&gt;&lt;div style=&quot;font-size: 14px&quot;&gt;&lt;div&gt;文公&lt;/div&gt;&lt;/div&gt;&lt;/div&gt;&lt;/div&gt;&lt;/div&gt;" style="text;html=1;align=center;verticalAlign=middle;resizable=0;points=[];autosize=1;strokeColor=none;fillColor=none;fontSize=14;fontColor=#000000;" vertex="1" parent="3">
                    <mxGeometry x="848" y="755" width="40" height="20" as="geometry"/>
                </mxCell>
                <mxCell id="148" value="&lt;div style=&quot;font-size: 16px&quot;&gt;&lt;div style=&quot;font-size: 16px&quot;&gt;&lt;div style=&quot;font-size: 16px&quot;&gt;&lt;div style=&quot;font-size: 16px&quot;&gt;&lt;div style=&quot;font-size: 16px&quot;&gt;姬恶&lt;br&gt;&lt;/div&gt;&lt;/div&gt;&lt;/div&gt;&lt;/div&gt;&lt;div style=&quot;font-size: 16px&quot;&gt;&lt;/div&gt;&lt;/div&gt;" style="rounded=1;whiteSpace=wrap;html=1;fillColor=#E6E6E6;fontColor=#000000;fontSize=16;strokeColor=none;strokeWidth=2;" vertex="1" parent="3">
                    <mxGeometry x="745" y="820" width="50" height="30" as="geometry"/>
                </mxCell>
                <mxCell id="149" value="&lt;div style=&quot;font-size: 16px&quot;&gt;&lt;div style=&quot;font-size: 16px&quot;&gt;&lt;div style=&quot;font-size: 16px&quot;&gt;&lt;div style=&quot;font-size: 16px&quot;&gt;&lt;div style=&quot;font-size: 16px&quot;&gt;姬视&lt;br&gt;&lt;/div&gt;&lt;/div&gt;&lt;/div&gt;&lt;/div&gt;&lt;div style=&quot;font-size: 16px&quot;&gt;&lt;/div&gt;&lt;/div&gt;" style="rounded=1;whiteSpace=wrap;html=1;fillColor=#E6E6E6;fontColor=#000000;fontSize=16;strokeColor=none;strokeWidth=2;" vertex="1" parent="3">
                    <mxGeometry x="801" y="820" width="50" height="30" as="geometry"/>
                </mxCell>
                <mxCell id="150" value="&lt;font color=&quot;#ffff00&quot;&gt;21&lt;/font&gt;" style="ellipse;whiteSpace=wrap;html=1;aspect=fixed;fontFamily=Helvetica;fontSize=10;fontColor=#ffffff;fillColor=#a20025;strokeColor=#6F0000;" vertex="1" parent="3">
                    <mxGeometry x="856" y="825" width="19.5" height="19.5" as="geometry"/>
                </mxCell>
                <mxCell id="162" style="edgeStyle=orthogonalEdgeStyle;shape=connector;rounded=1;html=1;exitX=0.5;exitY=1;exitDx=0;exitDy=0;entryX=0.5;entryY=0;entryDx=0;entryDy=0;labelBackgroundColor=default;fontFamily=Helvetica;fontSize=16;fontColor=#000000;endArrow=blockThin;endFill=1;strokeColor=#000000;strokeWidth=1;" edge="1" parent="3" source="151" target="160">
                    <mxGeometry relative="1" as="geometry"/>
                </mxCell>
                <mxCell id="151" value="&lt;div style=&quot;font-size: 16px&quot;&gt;&lt;div style=&quot;font-size: 16px&quot;&gt;&lt;div style=&quot;font-size: 16px&quot;&gt;&lt;div style=&quot;font-size: 16px&quot;&gt;&lt;div style=&quot;font-size: 16px&quot;&gt;姬俀&lt;br&gt;&lt;/div&gt;&lt;/div&gt;&lt;/div&gt;&lt;/div&gt;&lt;div style=&quot;font-size: 16px&quot;&gt;&lt;/div&gt;&lt;/div&gt;" style="rounded=1;whiteSpace=wrap;html=1;fillColor=#E6E6E6;fontColor=#000000;fontSize=16;strokeColor=none;strokeWidth=2;" vertex="1" parent="3">
                    <mxGeometry x="877" y="820" width="50" height="30" as="geometry"/>
                </mxCell>
                <mxCell id="152" value="&lt;div style=&quot;font-size: 14px&quot;&gt;&lt;div style=&quot;font-size: 14px&quot;&gt;&lt;div style=&quot;font-size: 14px&quot;&gt;&lt;div style=&quot;font-size: 14px&quot;&gt;&lt;div&gt;宣公&lt;/div&gt;&lt;/div&gt;&lt;/div&gt;&lt;/div&gt;&lt;/div&gt;" style="text;html=1;align=center;verticalAlign=middle;resizable=0;points=[];autosize=1;strokeColor=none;fillColor=none;fontSize=14;fontColor=#000000;" vertex="1" parent="3">
                    <mxGeometry x="924" y="825" width="40" height="20" as="geometry"/>
                </mxCell>
                <mxCell id="156" value="&lt;div style=&quot;font-size: 14px&quot;&gt;&lt;div style=&quot;font-size: 14px&quot;&gt;&lt;div style=&quot;font-size: 14px&quot;&gt;&lt;div style=&quot;font-size: 14px&quot;&gt;&lt;div style=&quot;font-size: 14px&quot;&gt;&lt;div style=&quot;font-size: 14px&quot;&gt;&lt;div&gt;哀姜&lt;/div&gt;&lt;/div&gt;&lt;/div&gt;&lt;/div&gt;&lt;/div&gt;&lt;/div&gt;&lt;/div&gt;" style="text;html=1;align=center;verticalAlign=middle;resizable=0;points=[];autosize=1;strokeColor=none;fillColor=none;fontSize=14;fontColor=#000000;" vertex="1" parent="3">
                    <mxGeometry x="769" y="796" width="40" height="20" as="geometry"/>
                </mxCell>
                <mxCell id="157" value="&lt;div style=&quot;font-size: 14px&quot;&gt;&lt;div style=&quot;font-size: 14px&quot;&gt;&lt;div style=&quot;font-size: 14px&quot;&gt;&lt;div style=&quot;font-size: 14px&quot;&gt;&lt;div style=&quot;font-size: 14px&quot;&gt;&lt;div style=&quot;font-size: 14px&quot;&gt;&lt;div&gt;哀姜&lt;/div&gt;&lt;/div&gt;&lt;/div&gt;&lt;/div&gt;&lt;/div&gt;&lt;/div&gt;&lt;/div&gt;" style="text;html=1;align=center;verticalAlign=middle;resizable=0;points=[];autosize=1;strokeColor=none;fillColor=none;fontSize=14;fontColor=#000000;" vertex="1" parent="3">
                    <mxGeometry x="825" y="796" width="40" height="20" as="geometry"/>
                </mxCell>
                <mxCell id="158" value="&lt;div style=&quot;font-size: 14px&quot;&gt;&lt;div style=&quot;font-size: 14px&quot;&gt;&lt;div style=&quot;font-size: 14px&quot;&gt;&lt;div style=&quot;font-size: 14px&quot;&gt;&lt;div style=&quot;font-size: 14px&quot;&gt;&lt;div style=&quot;font-size: 14px&quot;&gt;&lt;div&gt;敬赢&lt;/div&gt;&lt;/div&gt;&lt;/div&gt;&lt;/div&gt;&lt;/div&gt;&lt;/div&gt;&lt;/div&gt;" style="text;html=1;align=center;verticalAlign=middle;resizable=0;points=[];autosize=1;strokeColor=none;fillColor=none;fontSize=14;fontColor=#000000;" vertex="1" parent="3">
                    <mxGeometry x="902" y="796" width="40" height="20" as="geometry"/>
                </mxCell>
                <mxCell id="159" value="&lt;font color=&quot;#ffff00&quot;&gt;22&lt;/font&gt;" style="ellipse;whiteSpace=wrap;html=1;aspect=fixed;fontFamily=Helvetica;fontSize=10;fontColor=#ffffff;fillColor=#a20025;strokeColor=#6F0000;" vertex="1" parent="3">
                    <mxGeometry x="851" y="885" width="19.5" height="19.5" as="geometry"/>
                </mxCell>
                <mxCell id="166" style="edgeStyle=orthogonalEdgeStyle;shape=connector;rounded=1;html=1;exitX=0.5;exitY=1;exitDx=0;exitDy=0;entryX=0.5;entryY=0;entryDx=0;entryDy=0;labelBackgroundColor=default;fontFamily=Helvetica;fontSize=16;fontColor=#000000;endArrow=blockThin;endFill=1;strokeColor=#000000;strokeWidth=1;" edge="1" parent="3" source="160" target="164">
                    <mxGeometry relative="1" as="geometry"/>
                </mxCell>
                <mxCell id="160" value="&lt;div style=&quot;font-size: 16px&quot;&gt;&lt;div style=&quot;font-size: 16px&quot;&gt;&lt;div style=&quot;font-size: 16px&quot;&gt;&lt;div style=&quot;font-size: 16px&quot;&gt;&lt;div style=&quot;font-size: 16px&quot;&gt;姬黑肱&lt;br&gt;&lt;/div&gt;&lt;/div&gt;&lt;/div&gt;&lt;/div&gt;&lt;div style=&quot;font-size: 16px&quot;&gt;&lt;/div&gt;&lt;/div&gt;" style="rounded=1;whiteSpace=wrap;html=1;fillColor=#E6E6E6;fontColor=#000000;fontSize=16;strokeColor=none;strokeWidth=2;" vertex="1" parent="3">
                    <mxGeometry x="872" y="880" width="60" height="30" as="geometry"/>
                </mxCell>
                <mxCell id="161" value="&lt;div style=&quot;font-size: 14px&quot;&gt;&lt;div style=&quot;font-size: 14px&quot;&gt;&lt;div style=&quot;font-size: 14px&quot;&gt;&lt;div style=&quot;font-size: 14px&quot;&gt;&lt;div&gt;成公&lt;/div&gt;&lt;/div&gt;&lt;/div&gt;&lt;/div&gt;&lt;/div&gt;" style="text;html=1;align=center;verticalAlign=middle;resizable=0;points=[];autosize=1;strokeColor=none;fillColor=none;fontSize=14;fontColor=#000000;" vertex="1" parent="3">
                    <mxGeometry x="930" y="885" width="40" height="20" as="geometry"/>
                </mxCell>
                <mxCell id="163" value="&lt;font color=&quot;#ffff00&quot;&gt;23&lt;/font&gt;" style="ellipse;whiteSpace=wrap;html=1;aspect=fixed;fontFamily=Helvetica;fontSize=10;fontColor=#ffffff;fillColor=#a20025;strokeColor=#6F0000;" vertex="1" parent="3">
                    <mxGeometry x="856" y="945" width="19.5" height="19.5" as="geometry"/>
                </mxCell>
                <mxCell id="168" style="edgeStyle=orthogonalEdgeStyle;shape=connector;rounded=1;html=1;exitX=0.5;exitY=1;exitDx=0;exitDy=0;entryX=0.5;entryY=0;entryDx=0;entryDy=0;labelBackgroundColor=default;fontFamily=Helvetica;fontSize=16;fontColor=#000000;endArrow=blockThin;endFill=1;strokeColor=#000000;strokeWidth=1;" edge="1" parent="3" source="164" target="167">
                    <mxGeometry relative="1" as="geometry">
                        <Array as="points">
                            <mxPoint x="902" y="980"/>
                            <mxPoint x="850" y="980"/>
                        </Array>
                    </mxGeometry>
                </mxCell>
                <mxCell id="172" style="edgeStyle=orthogonalEdgeStyle;shape=connector;rounded=1;html=1;exitX=0.5;exitY=1;exitDx=0;exitDy=0;entryX=0.5;entryY=0;entryDx=0;entryDy=0;labelBackgroundColor=default;fontFamily=Helvetica;fontSize=16;fontColor=#000000;endArrow=blockThin;endFill=1;strokeColor=#000000;strokeWidth=1;" edge="1" parent="3" source="164" target="170">
                    <mxGeometry relative="1" as="geometry">
                        <Array as="points">
                            <mxPoint x="902" y="980"/>
                            <mxPoint x="948" y="980"/>
                        </Array>
                    </mxGeometry>
                </mxCell>
                <mxCell id="178" style="edgeStyle=orthogonalEdgeStyle;shape=connector;rounded=1;html=1;exitX=0.5;exitY=1;exitDx=0;exitDy=0;labelBackgroundColor=default;fontFamily=Helvetica;fontSize=16;fontColor=#000000;endArrow=blockThin;endFill=1;strokeColor=#000000;strokeWidth=1;" edge="1" parent="3" source="164" target="176">
                    <mxGeometry relative="1" as="geometry">
                        <Array as="points">
                            <mxPoint x="902" y="980"/>
                            <mxPoint x="1056" y="980"/>
                        </Array>
                    </mxGeometry>
                </mxCell>
                <mxCell id="164" value="&lt;div style=&quot;font-size: 16px&quot;&gt;&lt;div style=&quot;font-size: 16px&quot;&gt;&lt;div style=&quot;font-size: 16px&quot;&gt;&lt;div style=&quot;font-size: 16px&quot;&gt;&lt;div style=&quot;font-size: 16px&quot;&gt;姬午&lt;br&gt;&lt;/div&gt;&lt;/div&gt;&lt;/div&gt;&lt;/div&gt;&lt;div style=&quot;font-size: 16px&quot;&gt;&lt;/div&gt;&lt;/div&gt;" style="rounded=1;whiteSpace=wrap;html=1;fillColor=#E6E6E6;fontColor=#000000;fontSize=16;strokeColor=none;strokeWidth=2;" vertex="1" parent="3">
                    <mxGeometry x="877" y="940" width="50" height="30" as="geometry"/>
                </mxCell>
                <mxCell id="165" value="&lt;div style=&quot;font-size: 14px&quot;&gt;&lt;div style=&quot;font-size: 14px&quot;&gt;&lt;div style=&quot;font-size: 14px&quot;&gt;&lt;div style=&quot;font-size: 14px&quot;&gt;&lt;div&gt;襄公&lt;/div&gt;&lt;/div&gt;&lt;/div&gt;&lt;/div&gt;&lt;/div&gt;" style="text;html=1;align=center;verticalAlign=middle;resizable=0;points=[];autosize=1;strokeColor=none;fillColor=none;fontSize=14;fontColor=#000000;" vertex="1" parent="3">
                    <mxGeometry x="924" y="945" width="40" height="20" as="geometry"/>
                </mxCell>
                <mxCell id="167" value="&lt;div style=&quot;font-size: 16px&quot;&gt;&lt;div style=&quot;font-size: 16px&quot;&gt;&lt;div style=&quot;font-size: 16px&quot;&gt;&lt;div style=&quot;font-size: 16px&quot;&gt;&lt;div style=&quot;font-size: 16px&quot;&gt;姬野&lt;br&gt;&lt;/div&gt;&lt;/div&gt;&lt;/div&gt;&lt;/div&gt;&lt;div style=&quot;font-size: 16px&quot;&gt;&lt;/div&gt;&lt;/div&gt;" style="rounded=1;whiteSpace=wrap;html=1;fillColor=#E6E6E6;fontColor=#000000;fontSize=16;strokeColor=none;strokeWidth=2;" vertex="1" parent="3">
                    <mxGeometry x="825" y="1010" width="50" height="30" as="geometry"/>
                </mxCell>
                <mxCell id="169" value="&lt;font color=&quot;#ffff00&quot;&gt;24&lt;/font&gt;" style="ellipse;whiteSpace=wrap;html=1;aspect=fixed;fontFamily=Helvetica;fontSize=10;fontColor=#ffffff;fillColor=#a20025;strokeColor=#6F0000;" vertex="1" parent="3">
                    <mxGeometry x="902" y="1015" width="19.5" height="19.5" as="geometry"/>
                </mxCell>
                <mxCell id="170" value="&lt;div style=&quot;font-size: 16px&quot;&gt;&lt;div style=&quot;font-size: 16px&quot;&gt;&lt;div style=&quot;font-size: 16px&quot;&gt;&lt;div style=&quot;font-size: 16px&quot;&gt;&lt;div style=&quot;font-size: 16px&quot;&gt;姬裯&lt;br&gt;&lt;/div&gt;&lt;/div&gt;&lt;/div&gt;&lt;/div&gt;&lt;div style=&quot;font-size: 16px&quot;&gt;&lt;/div&gt;&lt;/div&gt;" style="rounded=1;whiteSpace=wrap;html=1;fillColor=#E6E6E6;fontColor=#000000;fontSize=16;strokeColor=none;strokeWidth=2;" vertex="1" parent="3">
                    <mxGeometry x="923" y="1010" width="50" height="30" as="geometry"/>
                </mxCell>
                <mxCell id="171" value="&lt;div style=&quot;font-size: 14px&quot;&gt;&lt;div style=&quot;font-size: 14px&quot;&gt;&lt;div style=&quot;font-size: 14px&quot;&gt;&lt;div style=&quot;font-size: 14px&quot;&gt;&lt;div&gt;昭公&lt;/div&gt;&lt;/div&gt;&lt;/div&gt;&lt;/div&gt;&lt;/div&gt;" style="text;html=1;align=center;verticalAlign=middle;resizable=0;points=[];autosize=1;strokeColor=none;fillColor=none;fontSize=14;fontColor=#000000;" vertex="1" parent="3">
                    <mxGeometry x="970" y="1015" width="40" height="20" as="geometry"/>
                </mxCell>
                <mxCell id="173" value="&lt;div style=&quot;font-size: 14px&quot;&gt;&lt;div style=&quot;font-size: 14px&quot;&gt;&lt;div style=&quot;font-size: 14px&quot;&gt;&lt;div style=&quot;font-size: 14px&quot;&gt;&lt;div style=&quot;font-size: 14px&quot;&gt;&lt;div style=&quot;font-size: 14px&quot;&gt;敬归&lt;/div&gt;&lt;/div&gt;&lt;/div&gt;&lt;/div&gt;&lt;/div&gt;&lt;/div&gt;" style="text;html=1;align=center;verticalAlign=middle;resizable=0;points=[];autosize=1;strokeColor=none;fillColor=none;fontSize=14;fontColor=#000000;" vertex="1" parent="3">
                    <mxGeometry x="850" y="988" width="40" height="20" as="geometry"/>
                </mxCell>
                <mxCell id="174" value="&lt;div style=&quot;font-size: 14px&quot;&gt;&lt;div style=&quot;font-size: 14px&quot;&gt;&lt;div style=&quot;font-size: 14px&quot;&gt;&lt;div style=&quot;font-size: 14px&quot;&gt;&lt;div style=&quot;font-size: 14px&quot;&gt;&lt;div style=&quot;font-size: 14px&quot;&gt;齐归&lt;/div&gt;&lt;/div&gt;&lt;/div&gt;&lt;/div&gt;&lt;/div&gt;&lt;/div&gt;" style="text;html=1;align=center;verticalAlign=middle;resizable=0;points=[];autosize=1;strokeColor=none;fillColor=none;fontSize=14;fontColor=#000000;" vertex="1" parent="3">
                    <mxGeometry x="948" y="988" width="40" height="20" as="geometry"/>
                </mxCell>
                <mxCell id="175" value="&lt;font color=&quot;#ffff00&quot;&gt;25&lt;/font&gt;" style="ellipse;whiteSpace=wrap;html=1;aspect=fixed;fontFamily=Helvetica;fontSize=10;fontColor=#ffffff;fillColor=#a20025;strokeColor=#6F0000;" vertex="1" parent="3">
                    <mxGeometry x="1010" y="1014.75" width="19.5" height="19.5" as="geometry"/>
                </mxCell>
                <mxCell id="182" style="edgeStyle=orthogonalEdgeStyle;shape=connector;rounded=1;html=1;exitX=0.5;exitY=1;exitDx=0;exitDy=0;labelBackgroundColor=default;fontFamily=Helvetica;fontSize=16;fontColor=#000000;endArrow=blockThin;endFill=1;strokeColor=#000000;strokeWidth=1;" edge="1" parent="3" source="176" target="180">
                    <mxGeometry relative="1" as="geometry"/>
                </mxCell>
                <mxCell id="176" value="&lt;div style=&quot;font-size: 16px&quot;&gt;&lt;div style=&quot;font-size: 16px&quot;&gt;&lt;div style=&quot;font-size: 16px&quot;&gt;&lt;div style=&quot;font-size: 16px&quot;&gt;&lt;div style=&quot;font-size: 16px&quot;&gt;姬宋&lt;br&gt;&lt;/div&gt;&lt;/div&gt;&lt;/div&gt;&lt;/div&gt;&lt;div style=&quot;font-size: 16px&quot;&gt;&lt;/div&gt;&lt;/div&gt;" style="rounded=1;whiteSpace=wrap;html=1;fillColor=#E6E6E6;fontColor=#000000;fontSize=16;strokeColor=none;strokeWidth=2;" vertex="1" parent="3">
                    <mxGeometry x="1031" y="1009.75" width="50" height="30" as="geometry"/>
                </mxCell>
                <mxCell id="177" value="&lt;div style=&quot;font-size: 14px&quot;&gt;&lt;div style=&quot;font-size: 14px&quot;&gt;&lt;div style=&quot;font-size: 14px&quot;&gt;&lt;div style=&quot;font-size: 14px&quot;&gt;&lt;div&gt;定公&lt;/div&gt;&lt;/div&gt;&lt;/div&gt;&lt;/div&gt;&lt;/div&gt;" style="text;html=1;align=center;verticalAlign=middle;resizable=0;points=[];autosize=1;strokeColor=none;fillColor=none;fontSize=14;fontColor=#000000;" vertex="1" parent="3">
                    <mxGeometry x="1078" y="1014.75" width="40" height="20" as="geometry"/>
                </mxCell>
                <mxCell id="179" value="&lt;font color=&quot;#ffff00&quot;&gt;26&lt;/font&gt;" style="ellipse;whiteSpace=wrap;html=1;aspect=fixed;fontFamily=Helvetica;fontSize=10;fontColor=#ffffff;fillColor=#a20025;strokeColor=#6F0000;" vertex="1" parent="3">
                    <mxGeometry x="1010" y="1075" width="19.5" height="19.5" as="geometry"/>
                </mxCell>
                <mxCell id="186" style="edgeStyle=orthogonalEdgeStyle;shape=connector;rounded=1;html=1;exitX=0.5;exitY=1;exitDx=0;exitDy=0;entryX=0.5;entryY=0;entryDx=0;entryDy=0;labelBackgroundColor=default;fontFamily=Helvetica;fontSize=16;fontColor=#000000;endArrow=blockThin;endFill=1;strokeColor=#000000;strokeWidth=1;" edge="1" parent="3" source="180" target="184">
                    <mxGeometry relative="1" as="geometry"/>
                </mxCell>
                <mxCell id="180" value="&lt;div style=&quot;font-size: 16px&quot;&gt;&lt;div style=&quot;font-size: 16px&quot;&gt;&lt;div style=&quot;font-size: 16px&quot;&gt;&lt;div style=&quot;font-size: 16px&quot;&gt;&lt;div style=&quot;font-size: 16px&quot;&gt;姬将&lt;br&gt;&lt;/div&gt;&lt;/div&gt;&lt;/div&gt;&lt;/div&gt;&lt;div style=&quot;font-size: 16px&quot;&gt;&lt;/div&gt;&lt;/div&gt;" style="rounded=1;whiteSpace=wrap;html=1;fillColor=#E6E6E6;fontColor=#000000;fontSize=16;strokeColor=none;strokeWidth=2;" vertex="1" parent="3">
                    <mxGeometry x="1031" y="1070" width="50" height="30" as="geometry"/>
                </mxCell>
                <mxCell id="181" value="&lt;div style=&quot;font-size: 14px&quot;&gt;&lt;div style=&quot;font-size: 14px&quot;&gt;&lt;div style=&quot;font-size: 14px&quot;&gt;&lt;div style=&quot;font-size: 14px&quot;&gt;&lt;div&gt;哀公&lt;/div&gt;&lt;/div&gt;&lt;/div&gt;&lt;/div&gt;&lt;/div&gt;" style="text;html=1;align=center;verticalAlign=middle;resizable=0;points=[];autosize=1;strokeColor=none;fillColor=none;fontSize=14;fontColor=#000000;" vertex="1" parent="3">
                    <mxGeometry x="1078" y="1075" width="40" height="20" as="geometry"/>
                </mxCell>
                <mxCell id="183" value="&lt;font color=&quot;#ffff00&quot;&gt;27&lt;/font&gt;" style="ellipse;whiteSpace=wrap;html=1;aspect=fixed;fontFamily=Helvetica;fontSize=10;fontColor=#ffffff;fillColor=#a20025;strokeColor=#6F0000;" vertex="1" parent="3">
                    <mxGeometry x="1010" y="1135" width="19.5" height="19.5" as="geometry"/>
                </mxCell>
                <mxCell id="190" style="edgeStyle=orthogonalEdgeStyle;shape=connector;rounded=1;html=1;exitX=0.5;exitY=1;exitDx=0;exitDy=0;entryX=0.5;entryY=0;entryDx=0;entryDy=0;labelBackgroundColor=default;fontFamily=Helvetica;fontSize=16;fontColor=#000000;endArrow=blockThin;endFill=1;strokeColor=#000000;strokeWidth=1;" edge="1" parent="3" source="184" target="188">
                    <mxGeometry relative="1" as="geometry"/>
                </mxCell>
                <mxCell id="184" value="&lt;div style=&quot;font-size: 16px&quot;&gt;&lt;div style=&quot;font-size: 16px&quot;&gt;&lt;div style=&quot;font-size: 16px&quot;&gt;&lt;div style=&quot;font-size: 16px&quot;&gt;&lt;div style=&quot;font-size: 16px&quot;&gt;姬宁&lt;br&gt;&lt;/div&gt;&lt;/div&gt;&lt;/div&gt;&lt;/div&gt;&lt;div style=&quot;font-size: 16px&quot;&gt;&lt;/div&gt;&lt;/div&gt;" style="rounded=1;whiteSpace=wrap;html=1;fillColor=#E6E6E6;fontColor=#000000;fontSize=16;strokeColor=none;strokeWidth=2;" vertex="1" parent="3">
                    <mxGeometry x="1031" y="1130" width="50" height="30" as="geometry"/>
                </mxCell>
                <mxCell id="185" value="&lt;div style=&quot;font-size: 14px&quot;&gt;&lt;div style=&quot;font-size: 14px&quot;&gt;&lt;div style=&quot;font-size: 14px&quot;&gt;&lt;div style=&quot;font-size: 14px&quot;&gt;&lt;div&gt;悼公&lt;/div&gt;&lt;/div&gt;&lt;/div&gt;&lt;/div&gt;&lt;/div&gt;" style="text;html=1;align=center;verticalAlign=middle;resizable=0;points=[];autosize=1;strokeColor=none;fillColor=none;fontSize=14;fontColor=#000000;" vertex="1" parent="3">
                    <mxGeometry x="1078" y="1135" width="40" height="20" as="geometry"/>
                </mxCell>
                <mxCell id="187" value="&lt;font color=&quot;#ffff00&quot;&gt;28&lt;/font&gt;" style="ellipse;whiteSpace=wrap;html=1;aspect=fixed;fontFamily=Helvetica;fontSize=10;fontColor=#ffffff;fillColor=#a20025;strokeColor=#6F0000;" vertex="1" parent="3">
                    <mxGeometry x="1010" y="1195" width="19.5" height="19.5" as="geometry"/>
                </mxCell>
                <mxCell id="194" style="edgeStyle=orthogonalEdgeStyle;shape=connector;rounded=1;html=1;exitX=0.5;exitY=1;exitDx=0;exitDy=0;entryX=0.5;entryY=0;entryDx=0;entryDy=0;labelBackgroundColor=default;fontFamily=Helvetica;fontSize=16;fontColor=#000000;endArrow=blockThin;endFill=1;strokeColor=#000000;strokeWidth=1;" edge="1" parent="3" source="188" target="192">
                    <mxGeometry relative="1" as="geometry"/>
                </mxCell>
                <mxCell id="188" value="&lt;div style=&quot;font-size: 16px&quot;&gt;&lt;div style=&quot;font-size: 16px&quot;&gt;&lt;div style=&quot;font-size: 16px&quot;&gt;&lt;div style=&quot;font-size: 16px&quot;&gt;&lt;div style=&quot;font-size: 16px&quot;&gt;姬嘉&lt;br&gt;&lt;/div&gt;&lt;/div&gt;&lt;/div&gt;&lt;/div&gt;&lt;div style=&quot;font-size: 16px&quot;&gt;&lt;/div&gt;&lt;/div&gt;" style="rounded=1;whiteSpace=wrap;html=1;fillColor=#E6E6E6;fontColor=#000000;fontSize=16;strokeColor=none;strokeWidth=2;" vertex="1" parent="3">
                    <mxGeometry x="1031" y="1190" width="50" height="30" as="geometry"/>
                </mxCell>
                <mxCell id="189" value="&lt;div style=&quot;font-size: 14px&quot;&gt;&lt;div style=&quot;font-size: 14px&quot;&gt;&lt;div style=&quot;font-size: 14px&quot;&gt;&lt;div style=&quot;font-size: 14px&quot;&gt;&lt;div&gt;元公&lt;/div&gt;&lt;/div&gt;&lt;/div&gt;&lt;/div&gt;&lt;/div&gt;" style="text;html=1;align=center;verticalAlign=middle;resizable=0;points=[];autosize=1;strokeColor=none;fillColor=none;fontSize=14;fontColor=#000000;" vertex="1" parent="3">
                    <mxGeometry x="1078" y="1195" width="40" height="20" as="geometry"/>
                </mxCell>
                <mxCell id="191" value="&lt;font color=&quot;#ffff00&quot;&gt;29&lt;/font&gt;" style="ellipse;whiteSpace=wrap;html=1;aspect=fixed;fontFamily=Helvetica;fontSize=10;fontColor=#ffffff;fillColor=#a20025;strokeColor=#6F0000;" vertex="1" parent="3">
                    <mxGeometry x="1010" y="1255" width="19.5" height="19.5" as="geometry"/>
                </mxCell>
                <mxCell id="198" style="edgeStyle=orthogonalEdgeStyle;shape=connector;rounded=1;html=1;exitX=0.5;exitY=1;exitDx=0;exitDy=0;entryX=0.5;entryY=0;entryDx=0;entryDy=0;labelBackgroundColor=default;fontFamily=Helvetica;fontSize=16;fontColor=#000000;endArrow=blockThin;endFill=1;strokeColor=#000000;strokeWidth=1;" edge="1" parent="3" source="192" target="196">
                    <mxGeometry relative="1" as="geometry"/>
                </mxCell>
                <mxCell id="192" value="&lt;div style=&quot;font-size: 16px&quot;&gt;&lt;div style=&quot;font-size: 16px&quot;&gt;&lt;div style=&quot;font-size: 16px&quot;&gt;&lt;div style=&quot;font-size: 16px&quot;&gt;&lt;div style=&quot;font-size: 16px&quot;&gt;姬显&lt;br&gt;&lt;/div&gt;&lt;/div&gt;&lt;/div&gt;&lt;/div&gt;&lt;div style=&quot;font-size: 16px&quot;&gt;&lt;/div&gt;&lt;/div&gt;" style="rounded=1;whiteSpace=wrap;html=1;fillColor=#E6E6E6;fontColor=#000000;fontSize=16;strokeColor=none;strokeWidth=2;" vertex="1" parent="3">
                    <mxGeometry x="1031" y="1250" width="50" height="30" as="geometry"/>
                </mxCell>
                <mxCell id="193" value="&lt;div style=&quot;font-size: 14px&quot;&gt;&lt;div style=&quot;font-size: 14px&quot;&gt;&lt;div style=&quot;font-size: 14px&quot;&gt;&lt;div style=&quot;font-size: 14px&quot;&gt;&lt;div&gt;穆公&lt;/div&gt;&lt;/div&gt;&lt;/div&gt;&lt;/div&gt;&lt;/div&gt;" style="text;html=1;align=center;verticalAlign=middle;resizable=0;points=[];autosize=1;strokeColor=none;fillColor=none;fontSize=14;fontColor=#000000;" vertex="1" parent="3">
                    <mxGeometry x="1078" y="1255" width="40" height="20" as="geometry"/>
                </mxCell>
                <mxCell id="195" value="&lt;font color=&quot;#ffff00&quot;&gt;30&lt;/font&gt;" style="ellipse;whiteSpace=wrap;html=1;aspect=fixed;fontFamily=Helvetica;fontSize=10;fontColor=#ffffff;fillColor=#a20025;strokeColor=#6F0000;" vertex="1" parent="3">
                    <mxGeometry x="1010" y="1315" width="19.5" height="19.5" as="geometry"/>
                </mxCell>
                <mxCell id="202" style="edgeStyle=orthogonalEdgeStyle;shape=connector;rounded=1;html=1;exitX=0.5;exitY=1;exitDx=0;exitDy=0;entryX=0.5;entryY=0;entryDx=0;entryDy=0;labelBackgroundColor=default;fontFamily=Helvetica;fontSize=16;fontColor=#000000;endArrow=blockThin;endFill=1;strokeColor=#000000;strokeWidth=1;" edge="1" parent="3" source="196" target="200">
                    <mxGeometry relative="1" as="geometry"/>
                </mxCell>
                <mxCell id="196" value="&lt;div style=&quot;font-size: 16px&quot;&gt;&lt;div style=&quot;font-size: 16px&quot;&gt;&lt;div style=&quot;font-size: 16px&quot;&gt;&lt;div style=&quot;font-size: 16px&quot;&gt;&lt;div style=&quot;font-size: 16px&quot;&gt;姬奋&lt;br&gt;&lt;/div&gt;&lt;/div&gt;&lt;/div&gt;&lt;/div&gt;&lt;div style=&quot;font-size: 16px&quot;&gt;&lt;/div&gt;&lt;/div&gt;" style="rounded=1;whiteSpace=wrap;html=1;fillColor=#E6E6E6;fontColor=#000000;fontSize=16;strokeColor=none;strokeWidth=2;" vertex="1" parent="3">
                    <mxGeometry x="1031" y="1310" width="50" height="30" as="geometry"/>
                </mxCell>
                <mxCell id="197" value="&lt;div style=&quot;font-size: 14px&quot;&gt;&lt;div style=&quot;font-size: 14px&quot;&gt;&lt;div style=&quot;font-size: 14px&quot;&gt;&lt;div style=&quot;font-size: 14px&quot;&gt;&lt;div&gt;共公&lt;/div&gt;&lt;/div&gt;&lt;/div&gt;&lt;/div&gt;&lt;/div&gt;" style="text;html=1;align=center;verticalAlign=middle;resizable=0;points=[];autosize=1;strokeColor=none;fillColor=none;fontSize=14;fontColor=#000000;" vertex="1" parent="3">
                    <mxGeometry x="1078" y="1315" width="40" height="20" as="geometry"/>
                </mxCell>
                <mxCell id="199" value="&lt;font color=&quot;#ffff00&quot;&gt;31&lt;/font&gt;" style="ellipse;whiteSpace=wrap;html=1;aspect=fixed;fontFamily=Helvetica;fontSize=10;fontColor=#ffffff;fillColor=#a20025;strokeColor=#6F0000;" vertex="1" parent="3">
                    <mxGeometry x="1010" y="1375" width="19.5" height="19.5" as="geometry"/>
                </mxCell>
                <mxCell id="206" style="edgeStyle=orthogonalEdgeStyle;shape=connector;rounded=1;html=1;exitX=0.5;exitY=1;exitDx=0;exitDy=0;entryX=0.5;entryY=0;entryDx=0;entryDy=0;labelBackgroundColor=default;fontFamily=Helvetica;fontSize=16;fontColor=#000000;endArrow=blockThin;endFill=1;strokeColor=#000000;strokeWidth=1;" edge="1" parent="3" source="200" target="204">
                    <mxGeometry relative="1" as="geometry"/>
                </mxCell>
                <mxCell id="200" value="&lt;div style=&quot;font-size: 16px&quot;&gt;&lt;div style=&quot;font-size: 16px&quot;&gt;&lt;div style=&quot;font-size: 16px&quot;&gt;&lt;div style=&quot;font-size: 16px&quot;&gt;&lt;div style=&quot;font-size: 16px&quot;&gt;姬屯&lt;br&gt;&lt;/div&gt;&lt;/div&gt;&lt;/div&gt;&lt;/div&gt;&lt;div style=&quot;font-size: 16px&quot;&gt;&lt;/div&gt;&lt;/div&gt;" style="rounded=1;whiteSpace=wrap;html=1;fillColor=#E6E6E6;fontColor=#000000;fontSize=16;strokeColor=none;strokeWidth=2;" vertex="1" parent="3">
                    <mxGeometry x="1031" y="1370" width="50" height="30" as="geometry"/>
                </mxCell>
                <mxCell id="201" value="&lt;div style=&quot;font-size: 14px&quot;&gt;&lt;div style=&quot;font-size: 14px&quot;&gt;&lt;div style=&quot;font-size: 14px&quot;&gt;&lt;div style=&quot;font-size: 14px&quot;&gt;&lt;div&gt;康公&lt;/div&gt;&lt;/div&gt;&lt;/div&gt;&lt;/div&gt;&lt;/div&gt;" style="text;html=1;align=center;verticalAlign=middle;resizable=0;points=[];autosize=1;strokeColor=none;fillColor=none;fontSize=14;fontColor=#000000;" vertex="1" parent="3">
                    <mxGeometry x="1078" y="1375" width="40" height="20" as="geometry"/>
                </mxCell>
                <mxCell id="203" value="&lt;font color=&quot;#ffff00&quot;&gt;32&lt;/font&gt;" style="ellipse;whiteSpace=wrap;html=1;aspect=fixed;fontFamily=Helvetica;fontSize=10;fontColor=#ffffff;fillColor=#a20025;strokeColor=#6F0000;" vertex="1" parent="3">
                    <mxGeometry x="1010" y="1435" width="19.5" height="19.5" as="geometry"/>
                </mxCell>
                <mxCell id="210" style="edgeStyle=orthogonalEdgeStyle;shape=connector;rounded=1;html=1;exitX=0.5;exitY=1;exitDx=0;exitDy=0;entryX=0.5;entryY=0;entryDx=0;entryDy=0;labelBackgroundColor=default;fontFamily=Helvetica;fontSize=16;fontColor=#000000;endArrow=blockThin;endFill=1;strokeColor=#000000;strokeWidth=1;" edge="1" parent="3" source="204" target="208">
                    <mxGeometry relative="1" as="geometry"/>
                </mxCell>
                <mxCell id="204" value="&lt;div style=&quot;font-size: 16px&quot;&gt;&lt;div style=&quot;font-size: 16px&quot;&gt;&lt;div style=&quot;font-size: 16px&quot;&gt;&lt;div style=&quot;font-size: 16px&quot;&gt;&lt;div style=&quot;font-size: 16px&quot;&gt;姬匽&lt;br&gt;&lt;/div&gt;&lt;/div&gt;&lt;/div&gt;&lt;/div&gt;&lt;div style=&quot;font-size: 16px&quot;&gt;&lt;/div&gt;&lt;/div&gt;" style="rounded=1;whiteSpace=wrap;html=1;fillColor=#E6E6E6;fontColor=#000000;fontSize=16;strokeColor=none;strokeWidth=2;" vertex="1" parent="3">
                    <mxGeometry x="1031" y="1430" width="50" height="30" as="geometry"/>
                </mxCell>
                <mxCell id="205" value="&lt;div style=&quot;font-size: 14px&quot;&gt;&lt;div style=&quot;font-size: 14px&quot;&gt;&lt;div style=&quot;font-size: 14px&quot;&gt;&lt;div style=&quot;font-size: 14px&quot;&gt;&lt;div&gt;景公&lt;/div&gt;&lt;/div&gt;&lt;/div&gt;&lt;/div&gt;&lt;/div&gt;" style="text;html=1;align=center;verticalAlign=middle;resizable=0;points=[];autosize=1;strokeColor=none;fillColor=none;fontSize=14;fontColor=#000000;" vertex="1" parent="3">
                    <mxGeometry x="1078" y="1435" width="40" height="20" as="geometry"/>
                </mxCell>
                <mxCell id="207" value="&lt;font color=&quot;#ffff00&quot;&gt;33&lt;/font&gt;" style="ellipse;whiteSpace=wrap;html=1;aspect=fixed;fontFamily=Helvetica;fontSize=10;fontColor=#ffffff;fillColor=#a20025;strokeColor=#6F0000;" vertex="1" parent="3">
                    <mxGeometry x="1010" y="1495" width="19.5" height="19.5" as="geometry"/>
                </mxCell>
                <mxCell id="214" style="edgeStyle=orthogonalEdgeStyle;shape=connector;rounded=1;html=1;exitX=0.5;exitY=1;exitDx=0;exitDy=0;labelBackgroundColor=default;fontFamily=Helvetica;fontSize=16;fontColor=#000000;endArrow=blockThin;endFill=1;strokeColor=#000000;strokeWidth=1;" edge="1" parent="3" source="208" target="212">
                    <mxGeometry relative="1" as="geometry"/>
                </mxCell>
                <mxCell id="208" value="&lt;div style=&quot;font-size: 16px&quot;&gt;&lt;div style=&quot;font-size: 16px&quot;&gt;&lt;div style=&quot;font-size: 16px&quot;&gt;&lt;div style=&quot;font-size: 16px&quot;&gt;&lt;div style=&quot;font-size: 16px&quot;&gt;姬叔&lt;br&gt;&lt;/div&gt;&lt;/div&gt;&lt;/div&gt;&lt;/div&gt;&lt;div style=&quot;font-size: 16px&quot;&gt;&lt;/div&gt;&lt;/div&gt;" style="rounded=1;whiteSpace=wrap;html=1;fillColor=#E6E6E6;fontColor=#000000;fontSize=16;strokeColor=none;strokeWidth=2;" vertex="1" parent="3">
                    <mxGeometry x="1031" y="1490" width="50" height="30" as="geometry"/>
                </mxCell>
                <mxCell id="209" value="&lt;div style=&quot;font-size: 14px&quot;&gt;&lt;div style=&quot;font-size: 14px&quot;&gt;&lt;div style=&quot;font-size: 14px&quot;&gt;&lt;div style=&quot;font-size: 14px&quot;&gt;&lt;div&gt;平公&lt;/div&gt;&lt;/div&gt;&lt;/div&gt;&lt;/div&gt;&lt;/div&gt;" style="text;html=1;align=center;verticalAlign=middle;resizable=0;points=[];autosize=1;strokeColor=none;fillColor=none;fontSize=14;fontColor=#000000;" vertex="1" parent="3">
                    <mxGeometry x="1078" y="1495" width="40" height="20" as="geometry"/>
                </mxCell>
                <mxCell id="211" value="&lt;font color=&quot;#ffff00&quot;&gt;34&lt;/font&gt;" style="ellipse;whiteSpace=wrap;html=1;aspect=fixed;fontFamily=Helvetica;fontSize=10;fontColor=#ffffff;fillColor=#a20025;strokeColor=#6F0000;" vertex="1" parent="3">
                    <mxGeometry x="1010" y="1555" width="19.5" height="19.5" as="geometry"/>
                </mxCell>
                <mxCell id="218" style="edgeStyle=orthogonalEdgeStyle;shape=connector;rounded=1;html=1;exitX=0.5;exitY=1;exitDx=0;exitDy=0;entryX=0.5;entryY=0;entryDx=0;entryDy=0;labelBackgroundColor=default;fontFamily=Helvetica;fontSize=16;fontColor=#000000;endArrow=blockThin;endFill=1;strokeColor=#000000;strokeWidth=1;" edge="1" parent="3" source="212" target="216">
                    <mxGeometry relative="1" as="geometry"/>
                </mxCell>
                <mxCell id="212" value="&lt;div style=&quot;font-size: 16px&quot;&gt;&lt;div style=&quot;font-size: 16px&quot;&gt;&lt;div style=&quot;font-size: 16px&quot;&gt;&lt;div style=&quot;font-size: 16px&quot;&gt;&lt;div style=&quot;font-size: 16px&quot;&gt;姬贾&lt;br&gt;&lt;/div&gt;&lt;/div&gt;&lt;/div&gt;&lt;/div&gt;&lt;div style=&quot;font-size: 16px&quot;&gt;&lt;/div&gt;&lt;/div&gt;" style="rounded=1;whiteSpace=wrap;html=1;fillColor=#E6E6E6;fontColor=#000000;fontSize=16;strokeColor=none;strokeWidth=2;" vertex="1" parent="3">
                    <mxGeometry x="1031" y="1550" width="50" height="30" as="geometry"/>
                </mxCell>
                <mxCell id="213" value="&lt;div style=&quot;font-size: 14px&quot;&gt;&lt;div style=&quot;font-size: 14px&quot;&gt;&lt;div style=&quot;font-size: 14px&quot;&gt;&lt;div style=&quot;font-size: 14px&quot;&gt;&lt;div&gt;文公&lt;/div&gt;&lt;/div&gt;&lt;/div&gt;&lt;/div&gt;&lt;/div&gt;" style="text;html=1;align=center;verticalAlign=middle;resizable=0;points=[];autosize=1;strokeColor=none;fillColor=none;fontSize=14;fontColor=#000000;" vertex="1" parent="3">
                    <mxGeometry x="1078" y="1555" width="40" height="20" as="geometry"/>
                </mxCell>
                <mxCell id="215" value="&lt;font color=&quot;#ffff00&quot;&gt;35&lt;/font&gt;" style="ellipse;whiteSpace=wrap;html=1;aspect=fixed;fontFamily=Helvetica;fontSize=10;fontColor=#ffffff;fillColor=#a20025;strokeColor=#6F0000;" vertex="1" parent="3">
                    <mxGeometry x="1010" y="1615" width="19.5" height="19.5" as="geometry"/>
                </mxCell>
                <mxCell id="216" value="&lt;div style=&quot;font-size: 16px&quot;&gt;&lt;div style=&quot;font-size: 16px&quot;&gt;&lt;div style=&quot;font-size: 16px&quot;&gt;&lt;div style=&quot;font-size: 16px&quot;&gt;&lt;div style=&quot;font-size: 16px&quot;&gt;姬雠&lt;br&gt;&lt;/div&gt;&lt;/div&gt;&lt;/div&gt;&lt;/div&gt;&lt;div style=&quot;font-size: 16px&quot;&gt;&lt;/div&gt;&lt;/div&gt;" style="rounded=1;whiteSpace=wrap;html=1;fillColor=#E6E6E6;fontColor=#000000;fontSize=16;strokeColor=none;strokeWidth=2;" vertex="1" parent="3">
                    <mxGeometry x="1031" y="1610" width="50" height="30" as="geometry"/>
                </mxCell>
                <mxCell id="217" value="&lt;div style=&quot;font-size: 14px&quot;&gt;&lt;div style=&quot;font-size: 14px&quot;&gt;&lt;div style=&quot;font-size: 14px&quot;&gt;&lt;div style=&quot;font-size: 14px&quot;&gt;&lt;div&gt;顷公&lt;/div&gt;&lt;/div&gt;&lt;/div&gt;&lt;/div&gt;&lt;/div&gt;" style="text;html=1;align=center;verticalAlign=middle;resizable=0;points=[];autosize=1;strokeColor=none;fillColor=none;fontSize=14;fontColor=#000000;" vertex="1" parent="3">
                    <mxGeometry x="1078" y="1615" width="40" height="20" as="geometry"/>
                </mxCell>
            </root>
        </mxGraphModel>
    </diagram>
</mxfile>